<?xml version="1.0" standalone="no"?>
<!DOCTYPE svg PUBLIC "-//W3C//DTD SVG 20010904//EN"
 "http://www.w3.org/TR/2001/REC-SVG-20010904/DTD/svg10.dtd">
<svg version="1.0" xmlns="http://www.w3.org/2000/svg"
 width="1024.000000pt" height="1024.000000pt" viewBox="0 0 1024.000000 1024.000000"
 preserveAspectRatio="xMidYMid meet">

<g transform="translate(0.000000,1024.000000) scale(0.100000,-0.100000)"
fill="#000000" stroke="none">
<path d="M0 5120 l0 -5120 5120 0 5120 0 0 5120 0 5120 -5120 0 -5120 0 0
-5120z m5633 3553 c4 -3 -11 -26 -33 -49 -22 -24 -40 -50 -40 -58 0 -7 9 -81
19 -162 11 -82 22 -176 26 -209 6 -61 50 -253 59 -263 3 -2 28 5 55 17 65 27
86 27 118 -5 l26 -26 -24 -24 c-13 -13 -59 -39 -101 -57 -43 -19 -75 -37 -71
-41 4 -3 8 -14 9 -24 17 -146 69 -386 94 -431 33 -57 49 -64 112 -42 141 48
212 106 275 220 53 97 100 141 150 141 27 0 125 -48 119 -59 -3 -4 4 -17 17
-27 l22 -19 -19 23 c-11 12 -14 22 -8 22 14 0 33 -34 30 -52 -8 -36 -113 -51
-166 -24 l-28 14 -36 -67 c-77 -140 -174 -212 -313 -232 -64 -9 -270 -83 -404
-145 -75 -35 -84 -21 -36 57 43 70 43 55 9 350 -17 149 -18 156 -38 152 -152
-33 -250 -78 -254 -116 -1 -6 -6 -37 -11 -67 -11 -62 -20 -148 -22 -200 -1
-33 -2 -33 -10 -10 -6 18 -7 12 -3 -22 3 -27 2 -48 -3 -48 -4 0 -9 -28 -11
-61 -3 -58 -1 -64 29 -95 41 -43 34 -60 -31 -69 -29 -4 -93 -24 -143 -45 -109
-45 -167 -59 -167 -39 0 8 14 34 30 58 35 52 53 107 81 251 25 132 68 338 75
366 5 19 -2 23 -60 39 -36 10 -66 23 -66 30 0 16 40 51 67 59 12 4 32 2 45 -5
25 -13 80 -16 122 -5 40 10 27 17 -39 21 -88 5 -149 23 -188 56 -68 56 -40 80
84 71 69 -4 77 -3 83 14 20 65 85 528 89 633 l2 63 -44 38 c-63 55 -54 65 66
74 54 4 157 13 228 20 153 16 219 18 228 9z m-1233 -225 c-27 -29 -54 -66 -59
-83 -13 -37 -22 -1543 -10 -1551 5 -2 16 0 26 5 10 6 53 26 95 46 112 51 174
113 226 222 23 48 49 126 59 173 13 61 23 86 34 88 11 2 18 -5 21 -20 7 -39
-13 -371 -30 -488 -7 -44 -9 -46 -81 -84 -40 -21 -127 -58 -191 -81 -65 -24
-176 -68 -247 -98 -148 -63 -317 -119 -347 -115 -13 2 -22 12 -24 25 -3 18 6
26 47 44 60 25 125 92 142 145 9 28 14 158 16 452 4 411 4 412 26 423 33 17
67 51 67 66 0 7 -16 23 -35 35 -18 13 -39 33 -45 46 -6 14 -10 132 -10 313 0
333 -2 344 -74 379 -23 11 -52 20 -64 20 -27 0 -29 16 -3 29 10 6 104 20 207
31 104 12 190 23 193 26 2 2 28 4 58 4 l53 0 -50 -52z m3036 -284 c-5 -14 -4
-15 8 -5 10 8 15 9 18 1 2 -6 13 -12 25 -13 12 0 19 -5 17 -9 -5 -8 24 -13 59
-10 10 1 15 -3 12 -8 -3 -6 -2 -10 4 -10 5 0 11 6 14 13 2 6 8 9 13 4 4 -4 -2
-17 -14 -29 -12 -13 -22 -17 -22 -10 0 19 -20 14 -21 -5 0 -11 -3 -13 -6 -5
-2 6 -10 9 -16 5 -7 -4 -5 2 3 12 14 17 14 18 -10 5 -24 -13 -24 -12 -10 6 15
18 14 18 -15 0 -25 -16 -28 -16 -16 -3 8 10 9 17 3 17 -6 0 -14 -4 -17 -10 -9
-15 -25 -12 -19 4 3 8 16 13 29 11 14 -1 22 2 19 7 -3 5 -12 7 -20 4 -8 -3
-14 0 -14 7 -1 7 -7 0 -15 -14 l-14 -26 -166 -2 c-91 0 -174 -5 -183 -10 -10
-5 -24 -6 -31 -2 -7 5 -25 6 -39 4 -15 -3 -39 -5 -54 -6 -16 -1 -28 -6 -28
-12 0 -5 -5 -3 -10 5 -9 13 -11 13 -20 0 -6 -9 -10 -10 -10 -3 0 12 -37 12
-58 -1 -7 -4 -12 -2 -12 6 0 9 -3 9 -10 -2 -6 -10 -10 -11 -10 -2 0 14 -21 12
-32 -3 -5 -6 -8 -3 -8 6 0 18 -31 22 -42 5 -5 -8 -8 -7 -8 2 0 6 -7 12 -15 12
-8 0 -15 -4 -15 -9 0 -12 -54 -19 -79 -10 -11 5 -23 4 -26 -1 -4 -6 -11 -10
-16 -10 -6 0 -7 5 -4 10 9 15 -2 12 -19 -6 -9 -9 -16 -11 -16 -4 0 6 -5 8 -10
5 -6 -4 -17 -1 -25 5 -9 7 -15 8 -15 2 0 -5 -11 -9 -25 -9 -13 0 -22 4 -19 9
4 6 -6 2 -22 -8 -26 -17 -28 -17 -15 -1 9 12 10 17 2 17 -6 0 -14 -7 -17 -15
-4 -8 -10 -15 -16 -15 -5 0 -7 4 -4 9 3 5 -5 8 -18 7 -13 0 -22 -4 -19 -8 7
-13 -12 -9 -26 5 -11 10 -12 9 -7 -1 6 -10 -6 -12 -53 -11 -37 1 -61 6 -61 13
0 8 -3 8 -8 0 -10 -15 -91 -17 -108 -3 -18 15 -18 53 0 68 19 16 95 19 601 27
248 3 451 7 452 8 1 1 77 3 169 4 151 2 166 1 160 -14z m286 -39 c5 -6 8 -6 8
2 0 18 129 16 137 -2 9 -25 -18 -46 -117 -92 -126 -57 -208 -100 -245 -128
-16 -12 -70 -43 -120 -68 -64 -33 -92 -43 -97 -34 -7 11 -12 3 -9 -15 2 -13
-17 -9 -22 5 -4 7 -6 6 -6 -4 -1 -17 -31 -36 -31 -20 0 14 -30 6 -41 -10 -5
-8 -9 -9 -9 -3 0 6 9 21 20 34 17 20 20 20 26 6 3 -9 10 -16 16 -16 5 0 6 5 3
10 -3 6 -1 10 5 10 7 0 9 8 5 20 -4 14 -1 22 12 28 28 11 25 40 -4 34 -14 -3
-22 -10 -21 -20 2 -10 -5 -17 -17 -19 -19 -3 -19 -3 -1 5 11 5 15 11 10 15 -6
3 -23 0 -38 -8 -14 -8 -34 -11 -43 -8 -11 4 -14 3 -9 -5 10 -16 -6 -15 -25 1
-12 10 -12 10 -1 -2 18 -22 15 -30 -13 -27 -13 2 -22 0 -20 -4 3 -4 -2 -13
-10 -20 -12 -10 -16 -9 -21 4 -3 9 -10 16 -16 16 -5 0 -6 -6 -2 -12 5 -8 0 -7
-11 2 -14 11 -17 12 -11 1 6 -9 5 -12 -5 -9 -8 3 -22 1 -31 -3 -10 -6 -19 -5
-23 1 -5 8 -12 7 -23 -2 -14 -10 -15 -10 -4 2 18 21 15 35 -5 19 -15 -13 -15
-12 -5 8 8 14 9 24 2 28 -5 3 -10 -1 -10 -9 0 -8 -4 -17 -10 -21 -5 -3 -5 7 1
25 6 16 16 33 22 37 6 4 8 0 4 -10 -3 -10 -2 -17 3 -17 5 0 10 6 13 13 2 6 2
-1 0 -18 l-3 -30 14 30 c8 17 15 23 15 15 1 -12 3 -13 10 -1 7 11 11 9 20 -8
12 -22 31 -20 31 2 0 7 -4 6 -10 -3 -5 -8 -10 -12 -10 -8 0 3 -3 13 -6 22 -4
12 1 14 23 12 15 -2 30 -4 32 -5 2 0 -3 -9 -10 -18 -7 -10 -9 -15 -5 -11 5 4
16 2 24 -5 13 -10 14 -9 7 3 -5 8 -11 23 -12 34 -3 16 -1 17 12 6 9 -7 15 -8
15 -2 0 11 18 11 38 -1 7 -5 12 -3 12 3 0 7 7 10 15 6 8 -3 15 -1 15 5 0 6 9
8 20 4 11 -4 20 -2 20 4 0 6 3 10 8 10 4 -1 9 0 12 1 3 1 23 4 45 6 22 2 65
12 95 22 30 10 65 18 77 17 12 -1 20 1 18 4 -2 4 8 11 21 18 16 7 24 8 24 1 0
-6 6 -5 15 2 21 17 68 21 78 7 6 -8 7 -6 3 6 -6 19 4 23 21 6 8 -8 13 -7 18 3
5 7 5 10 0 6 -4 -4 -14 -3 -22 3 -11 10 -11 16 3 38 l17 26 -22 -19 c-21 -19
-51 -30 -51 -19 0 10 65 92 73 93 4 0 7 -6 7 -12 0 -9 4 -8 10 2 9 13 10 13
10 0 1 -12 2 -12 10 1 11 18 40 20 52 4z m-5912 -49 c0 -7 -3 -28 -6 -46 l-7
-32 -73 7 -74 7 0 -36 0 -36 55 0 c54 0 55 0 55 -30 0 -30 -1 -30 -55 -30
l-55 0 0 -53 c0 -30 -2 -56 -5 -58 -2 -3 -20 -3 -40 -1 l-35 4 0 154 0 153
113 4 c61 1 115 4 120 5 4 1 7 -4 7 -12z m465 -94 l70 -79 3 83 3 84 29 0 c29
0 30 -1 30 -52 0 -29 3 -97 7 -150 l6 -98 -24 0 c-16 0 -49 25 -106 82 l-83
83 0 -88 c0 -76 -2 -87 -17 -87 -37 0 -40 14 -45 167 -3 84 -3 155 0 157 11
12 62 -29 127 -102z m485 21 c18 -43 48 -108 66 -145 19 -37 34 -72 34 -78 0
-5 -17 -10 -39 -10 -34 0 -39 3 -44 28 -6 28 -7 29 -73 28 -64 -1 -68 -2 -84
-31 -19 -34 -62 -42 -68 -13 -2 9 23 70 56 135 32 65 61 129 64 141 4 15 14
22 31 22 22 0 29 -10 57 -77z m4797 50 c-12 -12 -17 -13 -17 -5 0 7 -4 10 -10
7 -5 -3 -10 -1 -10 5 0 7 7 10 15 7 8 -4 17 -2 21 4 3 6 9 8 12 4 3 -3 -2 -13
-11 -22z m-5567 -133 l0 -150 -36 0 -37 0 6 83 c4 45 7 112 7 150 l0 67 30 0
30 0 0 -150z m1061 133 c1 -10 1 -62 -1 -115 l-2 -98 81 0 81 0 0 -34 c0 -41
-9 -43 -132 -38 l-88 4 0 147 0 147 30 2 c22 2 30 -2 31 -15z m5856 -47 c137
-17 173 -31 238 -87 34 -30 35 -33 19 -50 -22 -24 -24 -24 -124 7 -133 41
-135 41 -158 33 -15 -6 -26 -3 -37 7 -13 14 -15 14 -16 -3 0 -11 -3 -13 -6 -5
-4 10 -8 10 -21 0 -13 -11 -14 -11 -7 1 6 11 5 12 -6 5 -15 -9 -52 -13 -191
-17 -49 -1 -88 0 -88 3 0 8 -209 1 -288 -10 -40 -5 -77 -10 -82 -10 -21 0 6
33 47 57 46 27 93 39 191 48 31 3 81 7 110 10 98 9 157 16 159 19 5 5 208 -2
260 -8z m-2059 -129 c31 -4 57 -17 33 -17 -7 0 -9 -4 -6 -10 3 -5 1 -18 -5
-27 -9 -15 -10 -14 -4 7 6 23 6 24 -12 10 -18 -14 -18 -14 0 8 11 12 14 22 8
22 -6 0 -13 -4 -17 -10 -3 -5 -13 -7 -23 -4 -14 5 -15 4 -2 -5 13 -9 13 -12 1
-23 -10 -10 -12 -10 -7 0 8 13 -25 18 -38 5 -4 -4 -17 -8 -29 -9 -12 -1 -44
-5 -72 -10 -27 -5 -66 -9 -87 -9 -20 0 -34 -3 -32 -7 3 -5 -36 -16 -119 -33
-9 -2 -15 1 -12 5 3 5 -5 10 -17 12 -20 3 -21 4 -5 19 9 9 13 20 9 24 -4 5 1
5 10 2 11 -4 17 -2 15 6 -1 7 4 11 11 10 6 -2 12 2 12 8 0 6 6 9 14 6 8 -3 16
-2 18 3 8 24 216 34 356 17z m1057 -84 c-3 -8 -5 -20 -5 -26 0 -7 -4 -6 -10 3
-7 11 -10 7 -10 -17 0 -23 -5 -33 -16 -33 -9 0 -12 -5 -8 -12 5 -8 2 -9 -9 -5
-12 4 -17 1 -17 -9 0 -10 -6 -14 -14 -11 -8 3 -17 -2 -21 -11 -5 -13 -8 -14
-14 -3 -6 10 -10 9 -15 -4 -3 -9 -10 -13 -16 -10 -5 3 -10 1 -10 -5 0 -7 -7
-9 -16 -6 -8 3 -12 2 -9 -4 3 -6 1 -11 -4 -11 -20 -3 -26 -5 -58 -22 -18 -10
-33 -14 -33 -10 0 5 -4 3 -8 -3 -4 -5 -52 -26 -107 -46 -55 -20 -174 -64 -265
-98 -91 -33 -172 -62 -180 -64 -8 -1 -33 -11 -55 -20 -88 -40 -158 -65 -165
-61 -5 3 -10 1 -12 -4 -3 -8 -74 -39 -456 -197 -112 -46 -221 -93 -244 -105
-22 -11 -49 -18 -59 -16 -11 3 -17 2 -15 -2 5 -7 -126 -68 -133 -62 -2 1 -7
-2 -11 -9 -4 -6 -13 -12 -21 -14 -8 -1 -32 -10 -54 -20 -22 -10 -89 -37 -150
-61 -190 -73 -507 -202 -580 -235 -38 -18 -124 -54 -190 -80 -66 -27 -155 -65
-198 -85 -43 -20 -82 -33 -87 -30 -6 3 -10 2 -10 -3 0 -5 -17 -16 -37 -25 -21
-8 -80 -34 -132 -56 -52 -22 -98 -38 -102 -35 -5 3 -9 1 -9 -4 0 -5 -51 -29
-112 -52 -62 -24 -146 -58 -187 -77 -40 -18 -77 -30 -82 -27 -5 3 -9 1 -9 -5
0 -13 -67 -34 -81 -25 -7 4 -9 3 -6 -3 4 -6 -23 -22 -61 -38 -37 -15 -106 -45
-154 -66 -54 -23 -88 -33 -88 -26 0 7 -5 4 -11 -5 -5 -10 -15 -18 -21 -18 -6
0 -112 -40 -237 -89 -124 -50 -248 -95 -276 -101 -43 -10 -51 -9 -62 6 -34 47
-3 85 103 123 44 16 94 36 111 44 17 9 63 25 103 36 81 23 238 83 374 143 50
22 141 60 201 83 61 24 182 73 270 110 88 36 255 104 370 151 209 86 402 166
440 184 58 27 157 69 305 130 91 37 215 89 275 115 61 26 135 55 165 64 30 10
79 30 108 45 50 25 354 146 368 146 4 0 48 19 98 41 50 23 118 54 151 69 33
15 78 33 100 40 22 7 62 24 88 37 27 13 83 37 125 52 42 15 124 47 182 71 58
24 184 72 280 107 96 36 234 86 306 113 72 26 155 61 185 76 61 31 216 91 237
91 7 0 10 -7 7 -14z m-751 -31 c3 -5 -1 -9 -9 -9 -8 0 -12 4 -9 9 3 4 7 8 9 8
2 0 6 -4 9 -8z m-3171 -21 c33 -13 97 -70 97 -86 0 -16 -139 -105 -164 -105
-26 0 -104 57 -111 81 -9 26 18 64 65 97 35 23 73 28 113 13z m2851 -35 c-3
-8 -1 -23 6 -33 10 -16 10 -15 6 7 -5 22 -4 21 9 -5 12 -26 14 -27 15 -8 0 12
4 24 9 28 5 3 9 -10 8 -29 -1 -20 -6 -32 -13 -29 -7 2 -15 -1 -19 -6 -3 -6
-10 -9 -15 -6 -5 3 -22 -1 -37 -8 -28 -14 -222 -67 -246 -67 -26 0 -15 39 16
59 44 27 167 72 178 65 5 -3 9 -1 9 4 0 6 7 13 16 16 9 4 13 2 8 -5 -4 -8 0
-8 14 0 12 6 24 16 27 21 9 15 15 12 9 -4z m2336 -45 c0 -5 -15 -22 -34 -39
-45 -39 -65 -71 -67 -107 -1 -17 8 -95 19 -175 48 -335 63 -470 56 -481 -4 -7
-3 -9 3 -6 10 7 16 -16 28 -118 3 -22 13 -92 21 -155 16 -114 32 -253 33 -278
1 -9 16 -11 65 -6 64 7 65 6 72 -20 9 -37 -16 -62 -77 -76 -52 -13 -52 -13
-40 -77 6 -30 5 -43 -3 -43 -6 0 -5 -4 2 -9 8 -4 13 -19 11 -32 -1 -13 1 -32
6 -41 4 -10 5 -38 4 -62 -2 -24 -1 -42 4 -39 4 2 7 -2 7 -10 0 -8 3 -29 7 -47
5 -27 3 -32 -8 -25 -11 6 -11 5 -2 -5 6 -7 9 -19 6 -28 -4 -9 -2 -13 4 -9 7 4
17 -33 27 -106 10 -61 24 -149 32 -195 8 -45 12 -88 8 -95 -4 -7 -3 -8 1 -4 9
8 76 -162 78 -200 1 -11 5 -20 8 -18 3 2 25 -36 49 -86 52 -106 86 -144 158
-175 42 -19 52 -28 52 -48 0 -46 -58 -45 -210 0 -77 23 -91 31 -142 84 -61 62
-132 168 -219 322 -30 54 -58 98 -64 98 -6 0 -10 61 -11 163 0 138 -20 384
-41 520 -5 35 -8 38 -32 32 -34 -8 -227 -100 -255 -123 -13 -9 -21 -23 -18
-30 2 -6 -2 -12 -8 -12 -9 0 -9 -5 1 -17 12 -15 12 -16 -5 -10 -16 6 -17 5 -7
-7 7 -9 9 -21 5 -28 -5 -7 -7 -28 -5 -46 2 -24 -1 -32 -9 -27 -9 6 -9 2 0 -15
11 -20 10 -22 -5 -16 -14 5 -15 4 -7 -7 11 -13 12 -127 1 -127 -4 0 -5 -16 -2
-36 3 -24 0 -39 -9 -45 -9 -6 -10 -9 0 -9 8 0 12 -18 12 -58 0 -85 23 -153 60
-177 31 -21 40 -41 18 -42 -36 -2 -378 -113 -430 -139 -31 -16 -58 -18 -58 -5
0 4 14 26 31 47 77 97 96 163 133 469 42 337 45 359 64 385 17 23 97 72 104
64 2 -2 4 7 4 20 0 17 -5 23 -20 22 -15 -1 -21 -7 -20 -23 2 -30 -50 -47 -124
-41 -51 5 -59 9 -94 49 -21 24 -38 47 -38 51 0 10 64 27 127 34 29 4 57 12 63
18 9 12 46 242 70 446 7 52 22 147 35 210 21 105 57 370 69 512 4 48 1 59 -18
77 -12 11 -36 26 -54 32 -18 6 -31 16 -29 22 2 7 35 19 73 28 38 9 164 49 279
88 203 68 255 81 255 62z m-7838 -51 c30 0 60 -6 67 -12 11 -11 12 -10 6 2 -5
8 4 4 19 -10 37 -33 56 -72 56 -113 0 -28 -5 -36 -35 -50 -19 -9 -35 -21 -35
-27 0 -5 16 -25 35 -44 41 -41 45 -66 13 -66 -15 0 -43 21 -80 61 -31 34 -62
59 -70 57 -8 -3 -14 -24 -16 -55 -3 -48 -5 -51 -32 -55 l-30 -5 0 153 c0 171
3 188 30 174 10 -6 43 -10 72 -10z m806 7 c18 7 15 -81 -6 -152 l-19 -60 -61
1 -62 1 0 -59 c0 -55 -1 -58 -24 -58 -14 0 -28 5 -31 10 -12 19 -16 310 -5
310 5 0 10 -10 11 -22 l0 -23 9 23 c5 12 12 22 15 22 4 0 4 -4 0 -9 -3 -5 9
-3 25 6 17 8 42 13 55 11 13 -3 29 -1 36 3 7 4 20 4 28 0 9 -5 22 -6 29 -4z
m930 -92 c-2 -2 -30 -4 -63 -6 -71 -2 -95 -13 -95 -39 0 -18 7 -20 65 -20 63
0 65 -1 65 -25 0 -24 -3 -25 -60 -25 l-60 0 0 -30 0 -30 64 0 c77 0 96 -6 96
-30 0 -25 -19 -30 -126 -30 l-95 0 3 138 3 137 85 6 c66 4 74 6 35 8 -27 2
-66 2 -85 1 -33 -1 -34 -1 -15 13 15 11 22 12 27 4 6 -9 8 -9 8 1 0 8 16 12
45 12 29 0 45 -4 45 -12 0 -9 4 -8 10 2 6 10 10 11 10 3 0 -7 5 -13 11 -13 5
0 8 4 5 9 -4 5 0 11 6 14 9 2 14 -10 16 -41 2 -24 2 -46 0 -47z m-1276 40 c-2
-22 -6 -42 -8 -44 -2 -2 -30 -5 -62 -5 -61 -1 -72 -8 -72 -45 0 -22 2 -23 46
-16 47 7 74 -4 74 -31 0 -10 -16 -14 -61 -14 -60 0 -60 0 -57 -27 3 -27 5 -28
73 -31 77 -3 90 -10 80 -41 -6 -19 -14 -21 -106 -21 l-99 0 0 93 c0 50 -3 122
-7 159 l-6 68 105 -3 105 -2 -5 -40z m1486 30 c34 2 62 0 62 -4 0 -4 16 -13
35 -20 19 -6 48 -29 65 -49 25 -31 30 -45 30 -90 0 -49 -3 -58 -38 -92 -43
-43 -92 -60 -174 -60 l-58 0 0 168 c0 92 4 162 8 156 4 -7 31 -10 70 -9z
m-729 -72 c25 -27 61 -70 79 -97 l32 -49 0 84 c0 96 7 114 40 104 21 -7 22
-11 16 -74 -3 -36 -6 -94 -6 -128 0 -85 -14 -83 -112 14 l-78 78 0 -83 c0 -80
-1 -83 -22 -80 -16 2 -24 12 -30 38 -9 46 -12 215 -4 229 14 22 41 10 85 -36z
m-229 -77 c0 -63 3 -121 6 -130 5 -12 -1 -16 -24 -16 -19 0 -32 6 -36 17 -10
26 5 227 18 235 32 21 36 8 36 -106z m5703 -32 c140 -35 206 -98 248 -237 18
-58 21 -85 16 -161 -7 -103 -32 -200 -49 -190 -7 5 -9 2 -5 -9 7 -20 -25 -63
-63 -82 -16 -8 -49 -15 -74 -15 -39 0 -52 6 -87 37 -106 96 -115 218 -23 303
l46 42 65 -7 66 -7 -7 49 c-7 56 -47 119 -93 146 -62 36 -197 31 -236 -8 -8
-8 -17 -12 -21 -10 -3 3 -4 2 -1 -1 2 -4 -11 -24 -30 -45 -45 -51 -84 -128
-92 -187 -14 -93 -8 -194 16 -264 27 -81 127 -234 250 -383 134 -162 210 -265
264 -358 52 -90 102 -233 95 -272 -3 -13 -1 -22 4 -19 4 3 8 -17 7 -44 -1 -27
1 -54 5 -60 4 -7 4 -12 -1 -12 -4 0 -7 -29 -6 -65 1 -69 -21 -188 -37 -193 -6
-2 -8 -8 -4 -13 8 -13 -6 -50 -16 -44 -4 3 -6 -4 -3 -15 3 -12 -1 -22 -11 -26
-9 -3 -14 -9 -11 -14 7 -11 -64 -101 -123 -156 -143 -130 -317 -166 -485 -99
-79 32 -145 97 -192 191 -29 57 -30 63 -30 199 0 164 14 213 75 269 67 60 116
80 197 81 57 0 77 -4 100 -21 66 -49 104 -155 83 -233 -6 -23 -15 -41 -21 -41
-6 0 -7 -5 -3 -12 4 -6 3 -8 -4 -4 -6 3 -13 2 -17 -4 -4 -6 -11 -7 -17 -4 -7
5 -8 2 -4 -5 5 -7 15 -10 25 -7 9 4 5 -3 -9 -14 -14 -10 -29 -19 -35 -18 -5 1
-18 -2 -28 -7 -34 -15 -84 4 -122 47 -29 31 -34 42 -24 49 8 5 9 9 3 9 -6 0
-11 8 -11 18 0 49 -2 55 -18 42 -8 -7 -15 -17 -15 -22 0 -5 -6 -16 -14 -24 -8
-7 -12 -23 -9 -34 3 -11 0 -20 -6 -20 -31 0 7 -162 54 -230 79 -114 257 -119
368 -12 125 120 154 389 62 589 -36 80 -146 243 -240 358 -216 265 -286 368
-320 477 -35 111 -41 218 -20 358 26 174 84 271 218 362 133 91 242 115 370
82z m-603 -71 c0 -5 -18 -49 -40 -100 -43 -100 -55 -161 -65 -323 -7 -119 -14
-170 -24 -170 -4 0 -17 33 -29 73 -11 41 -30 84 -40 98 -36 44 -118 23 -226
-57 -18 -13 -20 -33 -23 -389 -4 -322 -2 -376 10 -381 24 -9 139 50 180 93 29
31 45 63 75 153 49 152 67 157 58 19 -3 -57 -7 -139 -8 -181 -1 -46 -7 -78
-13 -78 -6 0 -7 -3 0 -8 6 -4 11 -73 12 -162 l3 -155 -31 60 c-34 68 -79 115
-111 115 -40 0 -166 -89 -169 -119 -6 -63 -7 -154 -9 -451 -1 -224 -6 -360
-12 -367 -7 -9 -7 -13 1 -13 6 0 10 -3 9 -7 -1 -5 1 -32 5 -61 7 -51 9 -52 35
-46 44 11 114 43 153 70 48 33 77 95 100 217 31 159 34 170 46 174 12 4 16
-32 33 -327 6 -102 14 -197 17 -212 4 -21 1 -28 -10 -28 -23 0 -211 -61 -475
-154 -133 -47 -252 -86 -262 -86 -31 0 -24 22 24 72 81 86 79 69 85 709 5 457
9 569 20 582 20 25 7 44 -36 51 -87 15 -93 18 -93 36 0 13 15 24 48 36 26 10
50 23 54 28 4 6 8 191 8 411 0 302 -3 406 -13 425 -7 14 -32 35 -55 48 -65 36
-61 41 73 80 111 32 373 129 461 171 54 26 102 59 145 99 58 56 89 75 89 55z
m-4473 -175 c403 -1 731 -3 729 -6 -3 -2 -1 -14 4 -26 4 -13 5 -28 2 -33 -7
-11 -152 -23 -152 -13 0 3 -521 4 -1157 2 -637 -2 -1172 0 -1190 3 -33 6 -47
26 -38 55 5 17 39 18 507 19 276 1 504 3 505 5 2 2 16 2 31 0 15 -2 357 -5
759 -6z m-1387 -189 c41 -9 53 -16 67 -42 8 -18 19 -34 24 -37 13 -9 24 -94
12 -87 -6 4 -14 -4 -17 -17 -13 -51 -96 -40 -115 14 -13 39 -8 50 22 44 59
-12 67 -12 67 -3 0 5 -8 9 -17 9 -10 0 -38 12 -63 27 -38 22 -56 27 -115 26
-209 -2 -245 -27 -245 -170 0 -77 17 -115 72 -156 46 -35 98 -47 201 -47 101
0 161 17 371 106 176 75 255 116 367 189 117 77 179 109 249 129 65 18 150 25
149 12 0 -5 4 -12 10 -16 18 -10 -14 -32 -109 -73 -47 -21 -128 -60 -180 -87
-247 -128 -484 -241 -575 -275 -171 -64 -313 -79 -447 -49 -59 14 -78 23 -112
58 -63 64 -100 147 -99 227 0 56 5 75 32 123 51 89 90 104 268 105 73 1 155
-4 183 -10z m658 -10 c43 -27 -38 -66 -149 -73 -46 -3 -133 -8 -193 -12 -73
-5 -107 -4 -103 3 4 6 -4 9 -18 7 -14 -1 -25 2 -25 7 0 6 -5 7 -10 4 -6 -4
-10 -3 -9 2 4 16 -13 43 -24 36 -5 -3 -7 -1 -4 4 4 6 20 9 37 8 16 -1 30 1 30
6 0 5 66 10 148 11 81 2 182 4 224 6 48 2 84 -2 96 -9z m4370 -21 c9 -9 2 -19
-27 -45 -22 -18 -52 -53 -68 -77 l-30 -45 -6 -808 c-10 -1130 -9 -1169 14
-1308 24 -139 127 -339 219 -423 36 -33 177 -98 238 -111 116 -24 232 -6 362
57 200 98 264 288 134 402 -19 16 -34 34 -34 39 0 19 44 41 81 41 106 0 169
-162 119 -309 -55 -163 -195 -286 -405 -357 -180 -60 -465 -20 -632 89 -106
69 -232 217 -285 336 -42 90 -189 537 -248 751 -27 97 -64 225 -84 285 -19 61
-51 169 -70 240 -19 72 -41 148 -49 170 l-14 40 -5 -40 c-7 -48 -11 -325 -11
-710 0 -194 -3 -282 -11 -287 -8 -5 -7 -8 2 -8 9 0 12 -48 12 -208 0 -255 8
-287 76 -323 24 -13 44 -27 44 -30 0 -15 -381 -169 -425 -172 -44 -3 -45 27
-2 72 20 21 40 55 47 80 8 31 12 335 13 1081 2 1001 1 1039 -17 1059 -10 11
-35 25 -55 32 -76 24 -68 40 39 70 40 11 123 42 184 70 174 79 212 92 241 85
l27 -7 -42 -46 c-42 -44 -42 -46 -37 -102 3 -31 28 -128 56 -216 128 -400 154
-486 211 -696 16 -58 37 -131 48 -163 l20 -59 1 640 2 640 -25 31 c-14 16 -38
33 -52 36 -17 5 -24 12 -22 24 2 11 39 30 118 58 63 22 135 51 160 64 56 29
151 69 166 70 5 0 15 -5 22 -12z m-3300 -78 c148 -24 258 -100 317 -217 27
-53 30 -67 29 -153 -1 -106 -20 -170 -51 -170 -14 0 -15 -2 -4 -9 20 -13 -70
-106 -134 -139 -70 -35 -175 -42 -237 -14 -74 32 -127 119 -128 210 0 57 19
101 63 139 109 95 267 41 267 -91 0 -27 -6 -40 -25 -52 -36 -24 -106 -21 -149
5 -19 12 -40 20 -46 16 -27 -16 1 -100 42 -129 54 -38 186 -2 243 65 26 32 55
115 55 159 0 88 -65 191 -143 229 -148 72 -307 38 -441 -94 -87 -87 -133 -178
-146 -295 -7 -55 -10 -591 -8 -1497 3 -1245 1 -1413 -12 -1422 -12 -9 -12 -9
4 -4 16 5 18 1 15 -45 -2 -27 -1 -48 4 -45 4 2 7 -2 7 -10 0 -28 53 -173 86
-237 93 -178 241 -270 439 -274 105 -1 207 27 284 78 84 57 144 218 91 246
-11 6 -25 8 -30 5 -6 -3 -10 2 -10 11 0 16 -1 16 -15 -2 -8 -11 -14 -14 -15
-6 0 23 -37 -5 -44 -34 -5 -19 -10 -23 -20 -15 -10 8 -12 5 -9 -17 7 -41 -37
-62 -145 -69 -85 -6 -132 4 -132 27 0 14 31 41 41 35 5 -4 9 2 9 11 0 10 3 15
6 11 3 -3 11 -2 18 4 56 47 99 75 145 96 29 13 68 35 86 49 18 13 53 31 79 40
43 15 48 15 78 -3 18 -10 46 -38 62 -61 27 -38 30 -49 29 -120 0 -57 -6 -91
-22 -126 -29 -66 -114 -162 -183 -207 -119 -77 -348 -109 -525 -74 -166 33
-258 89 -413 253 l-106 111 -92 -29 c-95 -31 -132 -37 -132 -21 0 5 13 19 30
31 42 30 81 102 97 179 17 83 22 347 26 1476 4 948 6 920 -49 600 -32 -189
-31 -185 -33 -213 0 -13 -5 -20 -11 -17 -5 3 -7 0 -4 -9 5 -13 -14 -134 -58
-373 -6 -34 -14 -60 -17 -58 -3 1 -6 -9 -7 -23 -1 -15 -8 -63 -17 -107 -9 -44
-23 -134 -32 -200 -10 -66 -25 -160 -36 -210 -29 -141 -68 -353 -80 -435 -6
-41 -14 -79 -17 -85 -5 -8 -8 -30 -14 -103 -1 -7 -8 -10 -16 -7 -12 4 -12 3
-3 -9 18 -22 3 -156 -18 -157 -10 0 -12 -2 -3 -6 6 -2 12 -9 12 -14 0 -6 -6
-7 -12 -3 -9 5 -10 4 -3 -5 8 -8 8 -31 0 -78 -7 -39 -8 -85 -3 -108 23 -118
23 -115 -4 -115 -13 0 -35 11 -48 25 -20 21 -24 40 -31 124 -4 55 -17 135 -28
178 -45 172 -114 468 -177 763 -13 63 -40 183 -59 265 -64 278 -114 519 -150
725 -67 376 -62 391 -64 -230 -4 -1268 -1 -1779 8 -1865 18 -157 35 -196 107
-242 16 -10 8 -11 -46 -10 -36 0 -82 -5 -103 -12 -31 -11 -41 -10 -55 1 -15
11 -16 11 -5 -3 13 -16 8 -29 -9 -29 -5 0 -6 6 -3 13 4 6 0 4 -8 -5 -7 -9 -41
-38 -75 -63 -34 -25 -62 -48 -62 -52 0 -5 -13 -21 -28 -38 -54 -59 -74 -105
-75 -175 0 -83 25 -141 86 -197 45 -42 121 -73 176 -73 47 0 128 46 147 82 9
18 21 36 27 39 15 10 -1 28 -23 26 -10 -1 -17 -4 -14 -8 14 -24 -109 -28 -152
-6 -65 33 -79 127 -31 197 73 108 209 103 275 -8 24 -43 27 -56 27 -147 0 -83
-4 -109 -24 -153 -44 -97 -115 -133 -264 -134 -245 -1 -416 267 -336 528 25
81 70 174 128 263 94 146 93 124 89 1761 -3 1471 0 1392 -51 1448 -27 30 -135
62 -206 62 -75 0 -143 -34 -209 -104 -161 -170 -172 -407 -25 -554 60 -60 124
-84 216 -81 35 1 69 -1 75 -5 6 -3 10 -20 10 -37 -1 -26 -7 -34 -36 -46 -19
-8 -61 -14 -92 -14 -174 1 -346 156 -381 347 -32 169 39 355 186 493 81 75
171 126 270 151 95 24 162 25 348 4 82 -9 174 -14 218 -10 42 3 79 3 82 -1 4
-3 -12 -19 -33 -34 -22 -16 -40 -32 -40 -37 0 -4 7 -36 16 -72 8 -36 26 -119
39 -185 39 -199 82 -396 109 -496 14 -52 28 -116 31 -144 4 -27 20 -97 35
-155 16 -58 32 -123 35 -145 4 -22 23 -105 42 -185 18 -80 45 -201 59 -270 30
-146 49 -179 59 -104 3 27 10 67 15 89 5 22 31 157 59 300 56 290 122 609 176
850 19 88 49 223 66 300 17 77 44 192 59 255 34 138 54 266 45 281 -4 6 -28
20 -53 30 -53 23 -48 31 33 50 85 20 146 55 250 145 76 66 125 99 203 136 57
28 101 52 99 55 -6 6 -192 -43 -257 -68 -30 -11 -100 -42 -155 -69 -55 -27
-143 -65 -195 -85 -52 -21 -162 -69 -245 -108 -133 -62 -196 -90 -418 -184
-32 -13 -89 -28 -125 -32 -65 -6 -68 -6 -90 20 l-22 27 35 16 c19 9 103 42
187 72 83 30 186 71 227 90 42 20 168 75 281 124 113 48 264 115 336 148 242
112 371 145 549 137 61 -3 138 -10 173 -15z m1936 -492 c-26 -29 -56 -73 -67
-97 -18 -42 -19 -52 -8 -185 7 -78 25 -251 41 -386 16 -135 39 -330 50 -434
11 -104 25 -195 31 -203 7 -7 32 -13 59 -13 40 0 49 -4 60 -25 25 -47 -5 -59
-135 -57 -92 2 -123 -9 -104 -39 7 -11 9 -11 9 -1 0 7 5 10 10 7 6 -3 10 -2
10 2 0 15 80 15 84 1 3 -7 7 -79 10 -161 3 -81 7 -150 9 -155 3 -4 8 -56 11
-117 17 -276 37 -344 110 -382 15 -8 24 -18 20 -22 -5 -4 -76 -31 -159 -59
-82 -29 -181 -66 -219 -82 -38 -16 -73 -27 -77 -24 -18 11 -8 36 31 77 21 24
44 55 49 70 20 53 22 177 7 385 -23 293 -23 298 -53 311 -13 6 -22 7 -18 1 8
-12 -73 -53 -91 -46 -8 3 -13 2 -10 -2 2 -4 -18 -19 -45 -34 -27 -14 -46 -21
-42 -14 3 6 -5 0 -19 -14 -13 -14 -23 -28 -21 -32 2 -5 0 -8 -5 -8 -15 0 -33
-48 -19 -53 9 -3 9 -10 -1 -27 -7 -12 -11 -25 -8 -28 3 -3 6 1 6 8 0 7 2 11 5
8 10 -10 -7 -38 -19 -31 -6 4 -5 -1 3 -10 11 -14 11 -17 0 -18 -10 0 -11 -2
-1 -6 6 -2 12 -9 12 -14 0 -6 -4 -8 -8 -5 -4 2 -6 -11 -4 -31 3 -20 1 -33 -5
-30 -5 3 -8 -9 -7 -26 5 -61 -8 -157 -20 -150 -6 4 -6 1 1 -8 9 -11 10 -25 2
-52 -5 -21 -7 -42 -4 -47 3 -6 2 -10 -4 -10 -6 0 -4 -15 5 -36 11 -27 12 -34
2 -28 -10 6 -10 4 -2 -7 6 -8 16 -33 23 -56 7 -26 22 -50 41 -63 48 -34 39
-53 -33 -71 -61 -16 -178 -61 -307 -119 -63 -29 -65 -29 -68 -10 -2 11 10 42
27 69 44 73 61 133 77 271 65 584 65 583 52 591 -14 10 -37 12 -86 9 -18 -1
-40 4 -48 10 -18 16 -18 64 1 80 12 10 12 15 -1 35 -8 13 -14 39 -12 57 2 26
10 37 40 53 35 18 39 19 102 3 l66 -15 0 35 c0 41 23 282 45 474 8 70 33 241
55 380 22 139 40 266 40 283 0 36 -10 50 -63 89 -20 15 -35 31 -32 35 2 5 31
11 63 14 32 4 85 18 117 33 33 14 129 55 213 90 84 35 174 75 200 89 72 37 78
30 26 -27z m-3041 -156 c33 -29 40 -51 27 -83 -7 -16 -16 -26 -21 -23 -5 3 -9
-2 -9 -10 0 -12 -37 -33 -47 -27 -5 2 -40 -35 -53 -55 -10 -17 -11 -17 -6 -1
3 10 2 16 -3 13 -4 -3 -14 -32 -21 -65 -18 -85 -7 -154 35 -221 48 -75 47
-110 -4 -138 -57 -32 -106 -29 -141 8 -32 35 -45 76 -35 119 7 35 59 104 69
93 4 -3 0 7 -8 23 -31 60 -13 267 29 331 7 12 33 31 57 43 48 24 99 21 131 -7z
m1827 -325 c0 -7 -23 -35 -51 -62 -28 -28 -56 -59 -62 -70 -14 -23 -27 -1545
-14 -1545 5 0 5 -4 2 -10 -3 -5 -6 -76 -6 -156 1 -103 -3 -152 -12 -162 -10
-13 -9 -14 1 -8 10 6 13 3 12 -10 -1 -11 -2 -43 -1 -71 1 -45 4 -53 20 -53 30
0 182 82 217 117 64 63 111 205 135 403 6 52 13 99 16 104 3 5 12 -3 20 -17
19 -38 27 -216 14 -342 -6 -61 -14 -160 -17 -220 -3 -61 -7 -115 -9 -121 -2
-6 -19 -14 -38 -18 -38 -7 -378 -134 -575 -215 -68 -28 -129 -51 -137 -51 -31
0 -24 24 24 76 28 30 56 72 63 92 10 28 13 263 16 1019 1 540 -1 1004 -5 1030
-7 44 -12 50 -53 71 -25 12 -46 26 -48 31 -4 13 22 26 80 39 25 7 120 45 210
86 165 76 198 86 198 63z m-565 -227 c3 -6 -16 -36 -44 -68 -27 -31 -54 -69
-60 -84 -7 -18 -11 -202 -11 -508 -1 -363 -4 -480 -13 -480 -9 0 -8 -3 1 -8
17 -11 16 -232 -2 -232 -7 0 -7 -3 2 -8 15 -10 13 -232 -2 -232 -4 0 -3 -6 3
-14 16 -19 14 -305 -2 -325 -9 -12 -9 -13 1 -7 8 5 12 -2 12 -23 0 -18 -5 -31
-12 -32 -10 0 -10 -2 0 -6 6 -2 12 -16 12 -29 0 -18 -4 -23 -12 -18 -10 6 -10
4 -2 -7 6 -8 14 -39 17 -71 7 -71 18 -92 67 -123 37 -24 52 -45 31 -45 -5 0
-103 -38 -218 -84 -114 -47 -220 -88 -235 -91 -42 -11 -36 23 11 69 22 22 50
62 63 90 l23 51 3 1009 c3 1133 9 1041 -74 1077 -24 11 -44 26 -44 33 0 9 32
22 88 36 48 11 148 48 222 80 140 60 164 67 175 50z m-2366 -32 c35 -17 71
-91 71 -148 0 -35 -6 -50 -25 -68 -14 -13 -30 -20 -36 -16 -8 4 -9 3 -5 -4 4
-7 4 -12 -1 -13 -4 0 -17 -2 -28 -4 -74 -14 -105 -8 -140 30 -45 47 -54 101
-25 159 38 80 106 103 189 64z m7948 -524 c13 -2 22 -10 20 -17 -1 -7 6 -11
17 -9 11 2 15 -1 11 -7 -3 -6 0 -11 7 -11 8 -1 6 -6 -6 -15 -23 -17 -88 -16
-82 2 5 12 -13 11 -48 -3 -14 -5 -17 -4 -11 5 6 10 3 11 -14 2 -16 -9 -21 -9
-22 1 -6 60 26 73 128 52z m-4784 -106 c15 -14 15 -17 -2 -32 -10 -9 -21 -13
-24 -9 -4 3 -7 1 -7 -6 0 -8 -6 -11 -16 -7 -8 3 -12 2 -9 -3 3 -5 1 -12 -5
-16 -5 -3 -10 -1 -10 5 0 6 -4 8 -10 5 -17 -10 -11 47 7 67 19 21 53 20 76 -4z
m-3288 -38 c3 -5 15 -10 26 -10 10 0 19 -4 19 -10 0 -5 -4 -10 -9 -10 -5 0
-11 -9 -14 -20 -7 -27 -53 -47 -75 -33 -26 16 -38 59 -22 77 14 18 65 22 75 6z
m158 -30 l26 -21 1 -484 c0 -392 -2 -486 -13 -497 -8 -7 -12 -19 -10 -25 7
-20 -58 -53 -105 -53 -75 0 -142 52 -142 111 0 36 33 42 78 12 31 -20 108 -40
118 -30 3 3 0 32 -6 66 -7 39 -10 204 -8 465 2 369 0 407 -15 424 -9 10 -17
26 -17 35 0 25 61 22 93 -3z m7255 -7 c-11 -12 -23 -22 -27 -21 -19 2 -24 -4
-11 -12 13 -8 13 -10 -1 -10 -9 0 -22 -6 -29 -14 -6 -8 -18 -12 -26 -9 -9 3
-14 -1 -14 -12 0 -17 -87 -102 -101 -98 -5 2 -8 0 -6 -5 4 -15 -42 -64 -54
-56 -7 4 -9 3 -5 -4 3 -6 -5 -23 -19 -39 -20 -22 -24 -24 -19 -8 3 12 -1 9
-11 -7 -8 -16 -18 -28 -21 -28 -3 0 -2 6 2 13 6 9 4 9 -8 -1 -22 -18 -30 -2
-34 60 -2 39 2 51 19 63 16 11 23 12 30 2 6 -8 7 -7 3 5 -4 13 13 29 70 65 41
26 94 63 118 80 46 35 101 58 140 58 l25 0 -21 -22z m542 -4 c109 -38 237
-153 263 -237 25 -77 29 -105 16 -97 -8 6 -8 2 0 -13 6 -12 7 -23 2 -26 -5 -3
-7 -15 -4 -25 8 -30 -26 -119 -58 -156 -41 -46 -120 -78 -173 -70 -90 15 -180
156 -156 245 24 90 134 128 213 74 21 -14 41 -23 44 -20 3 3 2 21 -1 40 -11
55 -76 130 -143 162 -52 26 -68 29 -158 29 -94 0 -104 -2 -170 -35 -97 -49
-189 -143 -238 -245 -84 -169 -90 -227 -51 -425 28 -140 28 -142 9 -153 -36
-21 -67 -26 -86 -14 -44 27 -69 128 -69 272 0 117 26 221 87 345 85 174 274
332 429 360 61 11 198 5 244 -11z m-1054 -168 c-3 -5 0 -9 7 -8 36 1 46 -4 40
-19 -5 -14 -3 -15 18 -4 20 10 22 10 12 -1 -20 -21 -15 -31 10 -18 22 12 22
12 2 -8 -11 -11 -22 -16 -23 -11 -2 5 -10 4 -18 -3 -12 -9 -13 -9 -9 4 4 8 1
18 -5 22 -6 3 -9 1 -8 -6 2 -6 -3 -14 -11 -17 -10 -3 -12 0 -7 14 6 17 5 17
-15 -2 -22 -18 -22 -18 -15 0 5 16 4 17 -8 7 -12 -10 -18 -8 -31 13 -22 32
-12 46 31 46 19 0 33 -4 30 -9z m-6918 -41 c52 -48 1 -151 -62 -127 -26 10
-49 55 -42 82 7 29 43 65 66 65 9 0 26 -9 38 -20z m8605 -48 c10 -8 15 -22 12
-29 -2 -8 0 -11 5 -8 13 8 13 -1 -1 -27 -10 -18 -9 -20 5 -15 14 6 15 3 5 -14
-6 -11 -8 -27 -5 -34 7 -18 -23 -107 -34 -100 -4 3 -6 -3 -4 -12 5 -23 -38
-109 -53 -106 -6 1 -9 -6 -6 -15 5 -22 -75 -143 -106 -158 -12 -6 -22 -14 -22
-18 2 -18 -2 -25 -31 -55 -26 -26 -38 -32 -60 -27 -15 3 -28 1 -28 -4 0 -17
-29 -11 -50 10 -28 28 -13 54 70 118 77 58 128 132 154 222 9 30 28 91 41 135
13 44 27 101 31 127 6 46 7 46 33 37 14 -6 34 -18 44 -27z m-2252 -126 c5 3 9
0 9 -6 0 -7 6 -10 14 -7 24 10 27 -34 4 -75 -12 -20 -25 -35 -29 -32 -4 2 -10
-5 -14 -16 -9 -27 -114 -80 -173 -86 -26 -3 -72 -2 -102 3 -49 7 -55 11 -58
34 -2 20 5 34 32 56 74 60 295 156 304 132 2 -5 8 -7 13 -3z m566 -117 c-4
-16 -3 -18 9 -8 16 13 44 5 44 -13 0 -9 -3 -8 -10 2 -6 9 -10 10 -10 3 0 -7 7
-16 15 -20 17 -10 31 -94 20 -120 -4 -10 -9 -31 -11 -47 -4 -40 -33 -77 -79
-100 -34 -17 -41 -18 -64 -5 -38 22 -37 49 8 141 21 46 43 99 46 118 8 38 22
70 32 70 3 0 3 -9 0 -21z m-6913 -257 c-5 -40 -26 -64 -42 -48 -7 8 -4 212 4
239 3 9 10 15 15 12 5 -4 10 0 10 7 1 7 6 -27 10 -77 5 -49 7 -109 3 -133z
m7471 30 c4 1 18 -33 30 -77 26 -96 101 -248 156 -318 22 -28 47 -64 56 -81
12 -24 -1 -15 -57 39 -68 66 -146 170 -184 242 -28 56 -44 248 -16 203 4 -6
11 -10 15 -8z m380 -20 c28 -14 53 -25 58 -24 13 4 8 -7 -14 -26 -11 -11 -21
-29 -22 -41 -1 -11 -4 -21 -7 -21 -4 0 -6 -20 -6 -45 -1 -28 3 -41 8 -33 5 9
8 4 9 -14 2 -47 4 -53 16 -51 7 1 9 -6 5 -19 -5 -21 -6 -21 -13 -2 -7 18 -8
17 -8 -3 -1 -13 5 -23 12 -23 9 0 9 -2 0 -8 -10 -6 -9 -12 3 -28 15 -19 16
-19 9 1 -3 11 -2 16 2 11 10 -10 11 -96 1 -89 -5 2 -8 0 -8 -6 0 -5 5 -13 11
-17 8 -5 7 -10 -4 -16 -10 -5 -14 -15 -10 -25 4 -11 3 -14 -5 -9 -9 5 -10 1
-3 -16 9 -26 4 -51 -10 -42 -15 9 -5 -20 11 -33 8 -7 10 -13 4 -13 -7 0 -9
-12 -7 -27 17 -113 10 -348 -13 -463 -5 -24 -5 -24 -26 9 -18 28 -23 57 -30
200 -6 108 -16 194 -30 246 -11 44 -26 125 -33 180 -7 55 -30 156 -50 225 -44
149 -43 190 5 233 37 33 63 31 145 -11z m-2552 -50 c19 -17 24 -47 5 -36 -8 5
-9 2 -5 -9 4 -11 -1 -21 -14 -28 -16 -8 -167 -45 -259 -63 -8 -2 -22 -6 -30
-9 -8 -3 -125 -44 -260 -91 -443 -154 -720 -257 -847 -317 -45 -22 -84 -39
-87 -39 -3 0 -169 -76 -368 -169 -200 -92 -378 -171 -396 -175 l-34 -6 7 43
c4 24 16 50 28 61 24 21 177 95 332 161 55 24 152 66 215 95 204 91 432 187
555 233 348 132 665 242 1013 351 76 24 115 24 145 -2z m303 -287 c-3 -20 -16
-31 -16 -13 0 13 8 28 16 28 1 0 1 -7 0 -15z m1864 -10 c59 -31 150 -155 200
-272 24 -57 33 -100 45 -215 8 -79 21 -183 28 -233 8 -54 10 -95 5 -102 -5 -7
-5 -14 2 -18 5 -3 10 -11 10 -16 0 -6 -6 -7 -12 -3 -9 5 -9 2 1 -9 11 -14 11
-17 0 -17 -12 0 -12 -2 0 -9 16 -10 12 -35 -20 -122 -18 -49 -24 -56 -42 -52
-21 5 -21 5 -3 -9 13 -10 15 -17 8 -22 -7 -4 -12 -2 -12 5 0 10 -3 10 -12 1
-10 -10 -10 -15 2 -22 12 -8 11 -10 -5 -10 -17 0 -17 -2 -5 -10 14 -9 7 -14
-13 -11 -5 1 -6 -3 -2 -8 8 -13 -16 -51 -32 -51 -7 0 -12 -3 -11 -7 5 -15 -44
-83 -54 -77 -7 5 -8 2 -4 -5 9 -14 -21 -51 -41 -51 -8 0 -12 -4 -9 -9 3 -4 -4
-17 -17 -27 -19 -16 -20 -16 -8 -1 12 15 12 17 -2 12 -8 -4 -18 -17 -21 -31
-4 -13 -13 -24 -22 -24 -8 0 -13 -4 -10 -8 8 -13 -91 -85 -105 -76 -7 4 -9 3
-6 -4 9 -13 -56 -51 -163 -95 -119 -49 -254 -74 -288 -53 -6 4 -12 3 -12 -3 0
-5 -20 -9 -45 -8 -25 1 -46 -2 -48 -8 -2 -5 -65 -10 -153 -10 -144 0 -153 1
-273 38 -68 21 -153 51 -189 68 -81 36 -193 119 -187 137 3 7 0 10 -5 7 -24
-15 -100 100 -145 220 -43 113 -56 235 -36 338 22 117 156 298 251 338 25 11
61 28 81 39 20 11 45 21 55 23 10 1 24 6 31 10 6 4 18 4 27 1 9 -3 16 -2 16 3
0 5 7 10 15 10 17 0 18 -6 7 -23 -10 -16 -79 -49 -132 -65 -25 -7 -53 -20 -64
-28 -28 -24 -132 -163 -156 -208 -48 -94 -50 -248 -4 -396 52 -162 111 -241
236 -311 269 -150 580 -139 833 29 88 59 117 87 195 190 109 143 150 274 159
502 4 110 9 150 17 145 7 -4 28 -38 48 -75 32 -61 36 -77 36 -141 0 -99 -31
-211 -93 -335 -83 -164 -228 -306 -404 -395 -32 -16 -53 -33 -54 -44 0 -10 -3
-12 -6 -4 -2 6 -9 12 -15 12 -6 0 -7 -7 -4 -16 5 -14 4 -15 -9 -4 -16 13 -18
10 -9 -14 4 -11 12 -13 27 -7 12 5 32 7 45 6 12 -1 22 2 22 6 0 4 8 9 18 11 9
2 81 36 159 76 161 84 250 153 341 267 151 187 197 320 197 565 0 153 -17 261
-58 370 -17 45 -39 74 -132 165 -107 105 -137 147 -118 165 37 37 99 43 153
15z m-2085 -10 c11 -2 30 -4 42 -4 24 -1 56 -28 48 -41 -3 -5 1 -10 9 -12 13
-3 13 -7 0 -33 -8 -17 -24 -36 -35 -43 -19 -12 -27 -10 -70 17 -63 39 -101 48
-229 57 -99 6 -114 4 -260 -31 -174 -43 -350 -102 -520 -177 -156 -68 -637
-309 -785 -393 -66 -37 -172 -97 -235 -133 -63 -36 -128 -75 -145 -87 -41 -31
-136 -78 -143 -71 -12 12 63 103 116 142 55 40 470 276 518 294 13 5 137 65
276 134 139 69 280 134 313 145 33 11 102 36 153 56 51 19 101 37 110 39 21 4
40 11 127 47 107 44 262 89 340 98 65 8 324 5 370 -4z m2892 -17 c26 -24 30
-43 8 -34 -8 3 -15 1 -15 -5 0 -6 -6 -9 -14 -6 -9 4 -12 -2 -10 -19 2 -22 0
-23 -14 -12 -13 11 -14 11 -8 0 9 -15 -41 -75 -55 -66 -4 2 -11 -1 -15 -7 -4
-8 -3 -9 4 -5 7 4 12 2 12 -3 0 -6 -6 -11 -12 -11 -10 0 -10 -2 0 -8 9 -6 4
-16 -20 -35 -19 -16 -26 -27 -17 -28 8 0 6 -4 -6 -9 -12 -5 -14 -9 -6 -9 11
-1 10 -5 -5 -17 -15 -13 -16 -15 -2 -10 12 3 15 1 11 -10 -3 -7 -13 -14 -22
-14 -14 0 -14 -2 -1 -10 11 -7 11 -10 2 -10 -7 0 -11 -4 -7 -9 3 -5 1 -12 -5
-16 -6 -4 -8 -11 -5 -16 4 -5 0 -9 -7 -9 -10 0 -10 -2 1 -9 9 -6 10 -11 3 -15
-6 -4 -9 -13 -6 -21 3 -7 1 -23 -6 -34 -7 -14 -7 -21 0 -21 5 0 10 5 10 10 0
18 115 125 149 139 46 20 96 4 96 -29 0 -19 -12 -33 -50 -57 -27 -18 -58 -42
-67 -54 -10 -11 -22 -18 -28 -14 -6 4 -7 -1 -3 -12 3 -10 2 -14 -2 -10 -5 4
-17 -12 -26 -35 -10 -24 -22 -42 -27 -41 -5 1 -7 -10 -5 -25 3 -26 3 -26 -6
-4 -15 32 -21 27 -11 -8 8 -28 7 -29 -11 -20 -11 7 -19 7 -19 1 0 -5 6 -12 13
-15 6 -4 1 -4 -13 -2 l-25 5 23 -16 c12 -8 22 -21 22 -27 0 -6 -5 -4 -11 4 -9
12 -10 11 -6 -7 4 -17 1 -23 -11 -23 -13 0 -14 -2 -4 -9 20 -12 -5 -61 -32
-62 -17 -1 -18 -2 -3 -6 28 -7 20 -33 -10 -34 -23 -1 -24 -2 -6 -6 21 -4 21
-6 9 -41 -22 -62 -126 -262 -136 -262 -5 0 -14 9 -20 19 -12 23 -13 34 -2 27
4 -2 8 4 8 14 0 18 -1 18 -17 2 -9 -9 -15 -20 -12 -24 2 -5 -1 -8 -8 -8 -7 0
-10 -3 -6 -6 3 -4 -1 -13 -9 -21 -8 -9 -12 -18 -9 -21 3 -4 10 0 15 8 8 13 12
12 24 -5 9 -11 16 -15 16 -10 0 6 -5 16 -11 22 -6 6 -10 16 -8 21 2 6 12 0 21
-12 16 -22 15 -24 -8 -52 -25 -29 -25 -29 -19 -4 5 19 4 22 -4 10 -6 -8 -8
-22 -6 -30 7 -21 -33 -83 -49 -77 -7 3 -13 -1 -13 -9 0 -7 5 -10 10 -7 6 4 7
1 2 -6 -4 -7 -16 -10 -28 -7 -15 4 -17 2 -8 -7 16 -16 14 -30 -3 -24 -10 4
-13 1 -9 -9 3 -7 3 -14 -1 -14 -7 0 -66 58 -66 65 0 14 53 74 60 70 5 -3 12 0
16 6 4 8 3 9 -4 5 -16 -10 -15 6 1 29 15 19 38 13 33 -8 -1 -7 -1 -9 1 -4 3 4
9 4 15 1 6 -4 5 2 -1 15 -7 11 -16 21 -21 21 -5 0 15 46 44 103 29 56 64 135
77 175 15 49 28 72 38 72 14 0 14 1 1 10 -12 8 -12 10 5 11 11 0 15 3 8 5 -16
7 -5 34 14 34 8 0 11 5 7 12 -5 8 -2 9 11 4 14 -5 15 -4 7 6 -7 9 -7 28 3 64
7 28 16 80 21 115 9 80 12 104 14 104 0 0 2 44 5 97 6 149 51 293 108 346 49
46 121 50 164 10z m-1179 0 c16 -14 15 -53 -2 -67 -33 -27 -70 -29 -117 -5
-25 12 -61 25 -82 29 -43 8 -73 28 -64 42 8 13 248 14 265 1z m-498 -48 c118
-39 196 -88 289 -179 213 -209 295 -435 245 -679 -24 -119 -70 -239 -106 -276
-7 -7 -32 -36 -56 -64 -53 -63 -163 -137 -251 -170 -56 -21 -84 -25 -181 -26
-101 -1 -125 2 -195 27 -201 69 -311 176 -350 338 -31 133 -11 268 56 374 36
58 166 188 210 211 21 10 52 14 107 12 68 -3 77 -5 77 -22 0 -17 -14 -25 -52
-28 -7 -1 -13 -5 -13 -9 0 -4 -8 -7 -17 -7 -66 4 -227 -139 -278 -247 -52
-110 -32 -254 51 -364 135 -179 305 -231 551 -167 144 38 276 168 327 320 60
180 35 359 -73 523 -79 120 -150 190 -250 246 -164 92 -265 106 -420 56 -46
-15 -193 -88 -251 -125 -132 -84 -247 -214 -314 -354 -39 -82 -47 -110 -57
-199 -24 -219 25 -400 153 -562 54 -69 75 -87 178 -155 121 -81 269 -142 404
-167 146 -26 406 -28 516 -3 122 28 240 68 329 113 78 39 85 41 98 25 13 -15
13 -15 4 4 -9 19 -5 25 31 49 33 22 42 24 50 13 8 -10 9 -10 5 3 -6 19 117
134 133 124 6 -4 9 -1 8 7 -2 7 3 12 10 10 8 -1 11 1 8 6 -3 5 12 25 32 44
l37 35 35 -40 c20 -24 28 -38 18 -34 -12 4 -15 2 -11 -9 6 -16 -12 -20 -22 -4
-3 6 -12 10 -18 10 -7 0 -4 -5 5 -11 10 -5 15 -16 11 -25 -5 -13 -7 -13 -14
-2 -7 10 -9 11 -9 0 0 -8 -5 -10 -12 -6 -8 5 -7 0 2 -11 14 -17 13 -18 -3 -12
-10 4 -16 3 -13 -2 3 -4 -8 -20 -24 -35 -30 -26 -46 -34 -36 -17 3 5 -2 15
-12 22 -15 13 -16 12 -3 -3 10 -14 10 -18 1 -18 -7 0 -10 -6 -7 -14 6 -16 -26
-50 -36 -39 -4 3 -7 1 -7 -5 0 -6 -7 -9 -17 -5 -11 4 -14 3 -9 -5 4 -7 1 -12
-8 -12 -9 0 -15 -5 -14 -12 4 -17 -105 -88 -114 -74 -5 7 -8 4 -8 -7 0 -31
-328 -168 -367 -153 -7 3 -13 1 -13 -5 0 -7 -12 -9 -29 -7 -17 2 -28 1 -25 -4
3 -4 -5 -8 -18 -9 -13 0 -32 -3 -43 -5 -49 -11 -286 -9 -374 3 -211 29 -307
61 -475 162 -79 48 -136 91 -201 156 -80 79 -98 103 -144 196 -132 268 -121
595 30 816 93 136 257 300 394 393 28 18 52 36 55 40 22 27 115 62 195 74 71
10 231 -3 295 -24z m-553 -33 c-10 -30 -221 -152 -362 -208 -177 -70 -571
-287 -1017 -560 -76 -46 -184 -110 -240 -143 -57 -32 -116 -68 -132 -79 -23
-16 -30 -17 -38 -6 -8 11 -9 10 -4 -3 6 -20 -24 -41 -47 -32 -8 3 -18 1 -22
-5 -4 -7 1 -9 12 -5 16 5 16 4 -1 -10 -10 -8 -23 -13 -27 -10 -5 3 -9 0 -9 -6
0 -7 -7 -9 -16 -6 -8 3 -12 2 -9 -3 3 -5 0 -13 -6 -17 -6 -3 -15 0 -20 7 -6
11 -9 8 -9 -8 0 -20 -20 -34 -44 -32 -5 0 -13 -6 -18 -15 -5 -9 -15 -13 -25
-9 -11 4 -14 2 -9 -5 10 -17 -28 -34 -43 -19 -10 9 -11 8 -6 -5 4 -11 -1 -20
-14 -28 -12 -6 -21 -7 -21 -3 0 4 -5 0 -11 -10 -8 -14 -14 -16 -25 -6 -12 9
-13 9 -9 -2 3 -9 -7 -22 -26 -33 -18 -10 -29 -14 -25 -7 4 6 2 11 -3 11 -6 0
-11 -7 -11 -15 0 -8 -5 -15 -11 -15 -5 0 -7 6 -4 13 4 6 -2 2 -12 -9 -19 -23
-82 -60 -95 -56 -5 1 -8 -3 -8 -9 0 -6 -7 -8 -16 -5 -8 3 -12 2 -9 -3 5 -9
-32 -27 -47 -23 -5 1 -8 -3 -8 -9 0 -6 -7 -8 -16 -5 -8 3 -13 2 -10 -3 3 -4
-6 -13 -19 -19 -21 -10 -23 -9 -19 6 4 12 2 11 -7 -3 -7 -11 -17 -23 -23 -27
-13 -9 -36 10 -37 31 0 9 -3 11 -5 4 -3 -7 0 -22 7 -34 10 -19 9 -21 -5 -16
-9 4 -16 1 -16 -5 0 -7 -4 -7 -13 1 -14 11 -27 5 -27 -13 0 -6 5 -4 10 4 6 9
10 10 10 3 0 -7 -10 -17 -21 -24 -15 -8 -19 -8 -15 0 4 6 2 11 -3 11 -6 0 -11
-8 -11 -17 0 -15 -2 -16 -10 -3 -8 13 -10 12 -10 -4 0 -16 -2 -17 -17 -5 -15
12 -16 12 -10 -4 4 -11 3 -16 -3 -12 -6 3 -10 2 -10 -3 0 -5 -12 -14 -26 -20
-14 -7 -23 -8 -19 -3 3 5 0 13 -6 17 -7 4 -9 3 -6 -3 4 -6 0 -19 -9 -29 -15
-18 -15 -18 -9 2 3 11 -2 29 -11 40 -15 18 -15 18 -5 -3 13 -27 14 -36 2 -29
-5 4 -7 -4 -4 -16 5 -23 4 -23 -17 2 -19 22 -20 22 -11 3 13 -27 14 -33 2 -33
-5 0 -15 16 -21 35 -6 19 -15 37 -20 40 -5 3 -1 -13 7 -35 9 -22 13 -43 9 -47
-9 -9 -27 18 -20 29 3 4 2 14 -2 20 -5 7 -9 28 -10 46 -1 23 1 30 7 21 7 -12
9 -12 9 0 0 11 3 11 17 0 15 -12 16 -12 10 4 -4 10 -3 16 2 12 5 -3 12 1 15 7
3 7 3 2 0 -12 -4 -19 -3 -22 5 -10 9 13 13 12 26 -7 9 -13 22 -23 28 -22 9 0
9 2 1 5 -7 3 -11 13 -9 22 1 9 0 11 -2 3 -8 -22 -22 7 -16 30 5 16 8 17 21 7
13 -11 15 -10 9 5 -4 10 -3 16 2 12 5 -3 11 -2 14 2 2 5 3 3 1 -3 -1 -6 2 -17
8 -25 8 -12 9 -12 5 1 -2 8 -1 24 4 35 6 17 8 17 8 3 1 -10 6 -18 11 -18 6 0
15 -10 20 -22 6 -17 9 -18 9 -6 1 9 -6 23 -14 32 -8 8 -15 21 -15 28 0 10 3 9
10 -2 8 -13 10 -12 10 3 0 10 4 16 10 12 5 -3 7 -12 4 -20 -3 -7 -1 -22 4 -32
8 -14 10 -7 6 27 l-4 45 20 -25 19 -25 -6 25 c-7 30 0 25 22 -15 17 -30 17
-26 -1 38 -5 15 -3 19 4 12 6 -5 15 -26 20 -45 6 -19 11 -27 11 -18 1 9 -4 29
-9 44 -6 15 -8 29 -5 32 2 3 9 -6 14 -19 9 -23 10 -22 10 9 1 30 2 32 17 18 8
-9 18 -16 22 -16 3 0 1 5 -6 12 -7 7 -12 19 -12 27 0 11 4 10 15 -5 15 -18 15
-18 12 6 -2 14 -2 19 0 13 3 -7 9 -13 14 -13 5 0 9 6 9 13 0 8 4 7 10 -3 9
-13 10 -13 10 0 0 21 37 44 43 27 3 -7 6 -3 6 8 1 17 3 17 11 5 9 -13 10 -13
10 0 0 13 1 13 10 0 8 -13 10 -12 10 3 0 9 5 17 11 17 5 0 7 -6 4 -12 -4 -7 0
-5 8 4 8 10 17 15 20 11 4 -3 7 -1 7 6 0 8 6 11 16 7 8 -3 12 -2 9 4 -3 5 25
25 62 46 38 20 115 67 173 104 147 94 257 153 271 144 7 -4 9 -3 6 3 -3 5 8
17 26 27 18 10 67 41 109 68 45 29 82 47 89 42 7 -4 9 -3 6 3 -4 6 37 34 91
64 53 29 132 77 176 106 43 29 128 78 190 109 61 31 134 72 162 89 28 18 61
36 75 40 41 13 104 47 112 62 5 7 12 11 17 8 4 -3 10 2 14 10 3 8 1 17 -4 20
-21 13 -443 -172 -535 -235 -22 -15 -121 -73 -220 -130 -99 -56 -225 -131
-280 -165 -55 -34 -149 -91 -210 -125 -60 -35 -162 -96 -225 -135 -63 -39
-164 -98 -225 -130 -132 -70 -223 -124 -249 -148 -11 -9 -35 -22 -53 -29 -18
-7 -33 -16 -33 -20 0 -4 -6 -8 -12 -8 -7 0 -65 -29 -128 -65 -63 -36 -175 -94
-248 -130 -87 -43 -131 -69 -126 -77 5 -8 2 -9 -10 -5 -9 4 -15 3 -12 -2 3 -5
-1 -11 -9 -14 -10 -4 -12 -1 -9 11 5 14 4 15 -5 2 -15 -20 -14 -33 2 -27 8 3
14 -4 15 -16 1 -17 -1 -18 -8 -7 -13 21 -17 10 -9 -25 4 -16 7 -22 8 -12 0 10
5 16 10 13 4 -3 8 5 8 17 1 39 3 47 13 47 5 0 8 -6 6 -12 -1 -7 -1 -10 1 -5 3
4 8 5 13 2 4 -3 6 5 2 17 -5 21 -4 22 13 8 17 -14 18 -14 5 10 -12 23 -12 24
3 11 14 -11 17 -11 17 -1 0 8 3 11 6 7 3 -3 -1 -19 -9 -36 -8 -17 -12 -29 -9
-28 8 2 12 -7 12 -27 0 -18 -42 -29 -52 -13 -5 8 -8 7 -8 -5 0 -16 -17 -23
-42 -19 -5 0 -8 -4 -8 -10 0 -5 -4 -7 -10 -4 -5 3 -10 0 -11 -7 0 -10 -2 -10
-6 0 -2 6 -9 12 -14 12 -6 0 -8 -4 -4 -9 3 -5 1 -12 -5 -16 -5 -3 -10 1 -10
10 0 8 -7 18 -15 21 -8 4 -12 11 -8 18 4 6 -1 5 -10 -3 -15 -12 -17 -11 -17 8
0 14 4 20 12 15 7 -4 8 -3 4 5 -10 16 -26 4 -27 -22 l0 -22 -9 23 c-5 12 -11
22 -14 22 -2 0 -2 -10 1 -22 3 -17 2 -19 -5 -9 -7 9 -9 -1 -6 -35 3 -40 2 -43
-5 -19 l-9 30 -2 -35 -3 -35 -7 35 -7 35 -3 -35 c-2 -33 -3 -33 -10 -10 l-8
25 -1 -27 c-1 -20 -8 -29 -32 -37 -28 -9 -30 -9 -24 7 4 12 1 11 -15 -5 -23
-26 -36 -29 -43 -10 -3 7 -6 3 -7 -8 -2 -14 -5 -11 -10 10 l-8 30 -1 -30 c-1
-23 -3 -27 -11 -15 -8 13 -10 12 -10 -2 0 -21 -26 -24 -33 -5 -3 6 -6 3 -7 -8
-2 -17 -3 -16 -10 5 -7 23 -8 23 -9 4 -1 -25 -14 -31 -53 -29 -16 1 -28 -3
-29 -9 -1 -6 -5 0 -9 14 -8 24 -8 24 -9 3 -1 -13 -4 -23 -8 -24 -5 0 -15 -2
-23 -3 -8 -2 -35 -6 -60 -10 -25 -3 -58 -8 -75 -11 -67 -12 -145 -12 -145 -1
0 7 -4 6 -9 -2 -9 -14 -241 -19 -336 -7 -242 31 -425 136 -535 306 -134 208
-115 456 49 619 82 82 135 105 241 105 75 0 91 -3 131 -27 90 -53 130 -122
130 -223 0 -78 -22 -126 -75 -161 -78 -52 -167 -40 -213 29 -51 74 -17 151 72
168 62 12 81 28 66 58 -44 82 -218 54 -281 -45 -21 -34 -30 -40 -39 -31 -10 9
-11 6 -7 -17 3 -16 2 -26 -1 -22 -11 11 -33 -55 -27 -80 4 -14 2 -24 -5 -24
-6 0 -9 -6 -6 -12 2 -7 6 -44 9 -83 8 -97 30 -157 82 -214 113 -126 251 -192
441 -211 152 -16 269 -5 478 45 377 90 695 239 1445 679 113 65 277 159 365
206 212 116 397 220 412 231 6 6 125 71 265 145 369 198 680 327 863 359 76
13 195 54 320 110 72 32 279 87 346 92 12 1 19 -3 16 -10z m-5912 -102 c36
-26 63 -84 42 -86 -7 -1 -16 -1 -22 1 -5 1 -5 -4 2 -11 6 -6 9 -19 6 -28 -4
-14 -3 -14 7 -1 10 13 11 13 7 0 -2 -8 -12 -14 -21 -13 -10 0 -15 -1 -12 -4 6
-7 -13 -26 -42 -42 -47 -25 -114 26 -128 97 -6 32 23 95 49 106 32 13 82 5
112 -19z m4894 -58 c-35 -24 -135 -67 -228 -98 -155 -53 -279 -104 -376 -158
-44 -24 -127 -69 -184 -99 -57 -31 -118 -70 -135 -86 -17 -16 -49 -40 -71 -54
-22 -13 -49 -32 -60 -41 -25 -21 -79 -45 -70 -31 3 6 -1 7 -9 4 -9 -3 -13 -11
-9 -18 4 -6 -5 -3 -19 6 -24 16 -27 16 -33 0 -5 -14 -7 -14 -15 -2 -6 9 -10
10 -10 3 0 -17 23 -29 28 -15 4 14 22 16 22 2 0 -5 -11 -12 -25 -16 -13 -3
-27 -15 -30 -25 -4 -10 -11 -19 -16 -19 -12 0 -12 27 0 35 14 8 9 44 -5 38 -7
-2 -15 -11 -18 -19 -3 -9 -10 -12 -16 -9 -5 3 -10 -2 -10 -11 0 -15 4 -14 25
6 14 13 25 18 25 12 0 -14 -67 -65 -88 -67 -9 0 -57 -24 -105 -53 -48 -29 -90
-52 -93 -52 -2 0 -45 -25 -95 -55 -50 -30 -92 -55 -95 -55 -2 0 -62 -35 -132
-79 -197 -121 -383 -227 -545 -308 -343 -171 -476 -217 -797 -273 -76 -13
-306 -6 -354 11 -44 16 -62 38 -52 64 6 16 15 17 84 10 141 -14 253 -7 427 29
339 70 546 166 1120 521 99 61 207 127 240 147 33 19 132 78 220 130 88 52
203 116 255 142 52 26 99 51 105 55 25 20 246 131 260 131 8 0 15 5 15 11 0 5
5 7 10 4 6 -3 10 -2 10 2 0 13 100 68 117 65 8 -2 12 1 9 7 -8 12 30 25 45 15
7 -4 9 -3 5 4 -5 9 103 74 119 71 11 -2 120 45 126 54 3 5 8 8 10 6 2 -1 27 3
56 10 29 7 57 9 64 5 8 -4 9 -3 5 4 -4 7 -1 12 6 13 7 0 22 3 33 5 11 2 40 7
64 10 35 5 42 4 35 -7 -6 -11 -4 -11 10 0 21 17 101 28 92 12 -4 -6 6 -4 21 4
15 8 29 12 32 10 2 -3 2 -6 0 -8z m1583 -126 c77 -27 128 -61 180 -123 89
-104 134 -228 125 -343 -15 -198 -126 -331 -317 -380 -77 -20 -150 -15 -207
14 -41 21 -71 69 -57 92 4 7 3 10 -4 5 -28 -17 -102 119 -102 187 0 117 118
237 232 237 54 0 115 -34 145 -80 20 -28 23 -44 20 -97 -2 -35 -9 -69 -17 -76
-10 -10 -11 -9 -5 2 6 10 4 12 -4 7 -7 -5 -10 -13 -8 -20 3 -6 -2 -17 -9 -24
-8 -7 -14 -10 -14 -7 0 3 -10 -4 -22 -17 -13 -13 -30 -25 -38 -27 -38 -9 -76
-8 -82 2 -5 8 -8 8 -8 -2 0 -11 -4 -10 -16 5 -8 10 -12 12 -8 4 5 -11 1 -10
-13 3 -27 23 -37 8 -25 -36 6 -20 6 -40 0 -50 -11 -21 35 -46 102 -54 93 -11
246 54 303 129 53 68 71 126 71 218 0 76 -3 92 -31 146 -84 163 -239 258 -429
266 -41 1 -43 2 -23 16 11 8 32 18 47 23 39 12 149 2 214 -20z m-1092 -176 c0
-13 -29 -61 -46 -77 -11 -9 -95 -60 -189 -113 -242 -138 -336 -205 -455 -325
-92 -92 -112 -118 -155 -204 -49 -97 -50 -100 -49 -190 0 -101 24 -181 70
-236 14 -17 22 -35 18 -41 -5 -8 -3 -9 5 -4 8 4 23 -3 39 -19 59 -56 219 -79
292 -41 122 62 172 130 172 237 0 68 -36 155 -83 199 -26 25 -39 29 -85 29
-45 0 -59 -5 -84 -27 -27 -25 -62 -102 -40 -88 5 3 9 -3 10 -12 2 -53 6 -71
13 -66 4 2 7 -3 7 -12 0 -10 5 -13 13 -9 7 5 6 0 -3 -11 -9 -11 -10 -16 -2
-11 6 4 12 2 12 -3 0 -6 -6 -11 -12 -11 -10 0 -9 -3 1 -9 11 -7 9 -13 -7 -29
-11 -11 -17 -23 -14 -27 4 -3 -2 -3 -12 1 -14 5 -17 4 -12 -4 4 -7 -8 -4 -26
6 -89 49 -118 186 -63 292 17 34 80 85 129 105 85 36 206 4 276 -71 85 -92
115 -212 81 -322 -9 -30 -19 -51 -22 -48 -3 3 -13 -12 -23 -34 -10 -22 -22
-40 -27 -40 -5 0 -9 -6 -9 -13 0 -18 -68 -80 -80 -72 -6 4 -7 -1 -3 -11 4 -12
3 -15 -5 -10 -7 4 -12 3 -12 -2 0 -16 -112 -49 -158 -48 -23 1 -42 -2 -42 -7
0 -4 -4 -6 -9 -2 -5 3 -34 7 -63 9 -158 11 -303 166 -344 369 -23 112 -14 167
49 291 46 90 64 113 172 221 143 144 235 210 517 373 183 105 258 139 258 117z
m2825 -114 c-7 -69 -57 -216 -80 -240 -16 -16 -43 -9 -51 14 -7 17 69 255 93
293 12 19 17 21 30 11 12 -11 14 -26 8 -78z m-8206 33 c26 -33 27 -58 1 -84
-27 -27 -95 -28 -110 -1 -42 80 54 155 109 85z m2203 -156 c-7 -7 -12 -8 -12
-2 0 6 3 14 7 17 3 4 9 5 12 2 2 -3 -1 -11 -7 -17z m3022 -190 c-3 -4 0 -8 5
-8 6 0 11 -13 11 -30 0 -17 -5 -30 -12 -30 -8 0 -9 -3 -3 -8 6 -4 11 -11 12
-17 1 -5 5 -19 9 -29 5 -14 4 -17 -5 -11 -10 6 -11 3 -1 -15 11 -21 10 -22 -6
-16 -18 6 -18 5 0 -9 14 -11 16 -15 5 -15 -12 0 -12 -2 1 -10 13 -9 13 -10 0
-10 -13 0 -13 -1 0 -10 13 -9 13 -10 0 -10 -12 0 -12 -2 -1 -9 10 -6 10 -13 2
-28 -5 -11 -8 -23 -4 -26 3 -4 -2 -9 -11 -13 -9 -3 -13 -11 -10 -18 3 -6 -2
-2 -10 8 -9 11 -13 28 -10 38 4 12 1 18 -8 16 -7 -2 -12 5 -12 14 1 10 -2 16
-6 15 -4 -1 -18 12 -33 29 -14 17 -44 39 -66 49 -56 25 -57 58 -3 75 20 7 51
25 68 41 17 16 34 26 38 22 4 -5 7 -3 6 2 -4 20 1 25 24 23 14 -1 22 -6 20
-10z m2806 -73 c4 3 13 -2 20 -11 11 -12 10 -21 -3 -49 -22 -45 -47 -59 -75
-39 -12 8 -22 23 -22 32 0 20 63 87 68 72 2 -5 7 -8 12 -5z m-3726 -97 c-5 -9
-2 -9 9 1 15 12 17 11 17 -5 0 -21 -101 -121 -240 -239 -52 -44 -97 -82 -100
-85 -27 -28 -216 -170 -316 -237 -219 -148 -516 -264 -555 -217 -23 27 12 55
157 125 80 38 147 69 149 69 12 0 238 139 345 213 47 32 142 105 270 207 162
128 288 208 264 168z m-2578 -83 c23 -9 33 -19 28 -26 -4 -8 -3 -9 4 -5 17 10
35 -33 28 -68 -6 -32 -79 -106 -105 -106 -20 0 -91 75 -91 96 0 32 19 86 36
105 21 23 53 24 100 4z m6186 -22 c10 -9 18 -25 18 -36 0 -23 -37 -67 -56 -67
-7 0 -14 -6 -17 -12 -8 -21 -37 24 -31 46 10 32 45 86 57 86 6 0 19 -7 29 -17z
m-5576 -74 c0 -16 -15 -24 -86 -45 -47 -14 -121 -38 -165 -54 -93 -33 -115
-34 -115 -8 0 11 5 16 10 13 6 -3 10 0 10 7 0 8 12 28 28 45 22 26 37 33 80
37 28 4 69 9 90 12 148 24 148 24 148 -7z m-376 -120 c0 -11 -29 -19 -34 -10
-3 5 -3 10 -1 13 8 7 35 5 35 -3z m5801 -18 l22 -18 -21 -30 c-12 -17 -38 -45
-59 -63 -34 -31 -37 -31 -50 -14 -25 35 -16 70 29 108 23 20 45 36 49 36 4 0
17 -8 30 -19z m-3499 -141 c-3 -14 -6 -35 -7 -47 0 -13 -2 -23 -5 -23 -3 0 -5
-29 -5 -65 1 -53 -3 -69 -19 -83 -18 -16 -19 -16 -13 1 4 9 2 17 -4 17 -6 0
-9 7 -5 15 3 8 1 15 -4 15 -16 0 -23 93 -12 149 15 73 27 86 57 63 18 -13 22
-23 17 -42z m-1265 -30 c4 -8 8 -27 10 -42 2 -22 -1 -26 -14 -21 -12 5 -14 3
-8 -8 8 -12 6 -12 -9 0 -15 13 -18 12 -23 -8 -5 -20 -6 -20 -20 -4 -8 10 -12
12 -8 6 3 -8 0 -13 -8 -13 -10 0 -13 7 -10 19 3 11 0 28 -6 38 -10 15 -11 12
-6 -17 4 -31 4 -32 -6 -13 -12 22 -7 53 9 53 4 0 13 -12 19 -27 l12 -28 -5 30
c-4 23 -3 27 5 15 7 -9 11 -11 11 -3 0 7 -8 17 -17 22 -17 10 -17 10 0 11 9 0
17 5 17 11 0 5 5 7 10 4 6 -3 10 -1 10 5 0 6 5 8 10 5 6 -3 11 0 11 7 1 7 3 4
6 -7 2 -11 7 -27 10 -35z m2419 19 c4 -8 9 -7 15 2 6 10 9 11 9 2 0 -7 6 -13
14 -13 17 0 46 -43 46 -68 0 -10 -6 -24 -12 -31 -11 -11 -10 -13 2 -7 8 4 6 0
-4 -8 -11 -9 -26 -16 -33 -16 -20 0 -61 44 -69 74 -12 48 12 97 32 65z m2144
-50 c22 -40 2 -77 -58 -109 -29 -15 -32 -12 -39 41 -6 39 -3 45 27 70 34 29
54 28 70 -2z m-4695 1 c-3 -6 3 -23 14 -39 12 -16 21 -34 21 -39 0 -18 -22
-25 -31 -11 -7 11 -9 9 -10 -6 l0 -20 -9 20 c-7 16 -9 17 -9 3 -1 -9 -5 -19
-10 -22 -4 -3 -6 5 -4 18 3 14 0 32 -7 43 -10 15 -11 14 -7 -12 6 -38 -8 -66
-30 -58 -12 5 -14 3 -8 -7 5 -9 4 -11 -3 -6 -7 4 -12 3 -12 -2 0 -6 -14 -15
-31 -21 -39 -13 -42 -14 -34 -1 3 5 1 18 -5 27 -10 16 -10 16 -6 -2 3 -11 1
-27 -4 -35 -6 -10 -8 -2 -4 25 3 22 5 51 5 65 1 21 2 22 10 7 6 -9 7 -22 3
-29 -5 -7 -3 -8 5 -3 8 4 10 17 6 34 -6 25 -6 25 9 6 20 -26 20 -30 -1 -51
-16 -15 -16 -17 -2 -12 9 4 22 1 29 -5 10 -9 11 -9 6 1 -4 7 -2 12 5 12 10 0
10 3 1 12 -7 7 -12 16 -12 20 0 12 22 5 40 -12 8 -9 12 -11 8 -6 -5 6 -8 19
-8 29 0 16 -3 17 -15 7 -12 -10 -15 -10 -15 1 0 12 -2 12 -9 1 -7 -11 -9 -10
-14 3 -4 9 -3 13 3 10 6 -3 10 -1 10 6 0 9 3 9 14 0 12 -10 16 -8 21 10 6 17
9 19 16 8 7 -11 11 -11 17 -1 6 9 12 5 22 -13 8 -14 19 -24 26 -21 6 2 17 -1
24 -7 7 -7 4 2 -6 18 -25 42 -27 43 -20 15 7 -23 6 -24 -8 -7 -13 17 -13 21 2
38 18 20 27 26 17 9z m1190 -85 c29 -28 31 -47 8 -85 -16 -28 -51 -50 -79 -50
-26 0 -64 47 -64 78 0 74 84 109 135 57z m1360 -1 c14 -15 13 -20 -19 -62 -26
-36 -42 -48 -65 -50 -28 -3 -31 0 -31 23 0 35 38 88 57 81 7 -3 16 1 19 9 8
19 19 19 39 -1z m1956 -87 c8 -15 3 -25 -27 -52 -20 -19 -50 -39 -65 -44 -24
-8 -31 -7 -39 9 -23 42 -12 68 43 105 56 38 58 38 88 -18z m-4954 -84 c-3 -10
-5 -2 -5 17 0 19 2 27 5 18 2 -10 2 -26 0 -35z m20 10 c-3 -10 -5 -4 -5 12 0
17 2 24 5 18 2 -7 2 -21 0 -30z m43 8 c0 -13 -2 -13 -9 -2 -7 11 -10 10 -14
-5 -3 -14 -5 -11 -6 8 -1 20 3 26 14 22 8 -4 15 -14 15 -23z m4645 -62 c5 -14
1 -25 -12 -35 -30 -23 -121 -54 -167 -56 -24 -2 -42 -6 -40 -9 4 -7 -30 -13
-190 -34 -184 -25 -473 -5 -621 42 -63 20 -70 26 -55 53 11 20 17 21 68 15 31
-4 84 -13 117 -20 122 -29 202 -32 435 -20 80 4 157 8 172 9 14 1 24 5 20 10
-3 5 5 7 16 4 12 -4 22 -3 22 1 0 4 25 15 55 25 31 9 74 26 97 36 47 21 72 14
83 -21z m-4714 -219 c17 0 19 -8 19 -84 0 -47 4 -96 10 -111 13 -35 55 -50 86
-30 22 14 24 22 24 98 0 112 5 127 42 127 l30 0 -3 -120 -4 -120 -38 -37 c-32
-33 -44 -38 -83 -38 -41 0 -49 4 -90 47 l-44 47 0 116 c0 103 2 116 16 111 9
-3 24 -6 35 -6z m1237 -4 c31 -16 74 -61 91 -93 17 -33 13 -104 -7 -136 -62
-94 -167 -103 -243 -20 -61 65 -65 120 -16 185 53 70 118 94 175 64z m387 -10
c30 -20 31 -36 6 -67 -19 -23 -20 -23 -39 -6 -13 12 -32 17 -54 15 -51 -5 -42
-30 16 -48 56 -17 116 -67 116 -98 0 -30 -45 -79 -86 -92 -29 -10 -43 -9 -77
4 -23 9 -51 23 -61 31 -19 15 -19 15 4 39 21 24 24 24 52 10 36 -18 83 -15 83
6 0 8 -23 26 -52 40 -105 51 -121 96 -56 157 33 32 41 35 80 30 23 -2 54 -12
68 -21z m465 -22 c28 -45 86 -191 97 -247 6 -27 4 -28 -28 -25 -26 2 -35 8
-37 26 -3 18 -10 22 -41 22 -21 0 -53 3 -70 6 -29 6 -33 4 -44 -25 -8 -22 -18
-31 -34 -31 -14 0 -23 6 -23 15 0 16 27 87 74 195 19 41 36 83 39 93 11 30 36
19 67 -29z m1503 11 l38 -22 -24 -28 -24 -28 -21 21 c-23 23 -57 28 -81 13
-19 -12 -2 -35 39 -50 17 -6 43 -16 58 -21 37 -14 65 -61 56 -94 -3 -14 -22
-39 -40 -56 -50 -44 -111 -43 -161 3 -59 55 -30 85 51 52 27 -12 42 -13 56 -5
32 17 24 29 -35 56 -57 26 -105 73 -105 103 0 37 95 96 135 84 11 -3 37 -16
58 -28z m-3794 -9 c42 -40 46 -61 22 -95 l-20 -28 24 -23 c33 -31 32 -69 -3
-103 -26 -25 -34 -27 -119 -27 l-91 0 -4 148 c-2 81 -2 151 0 156 3 4 40 6 83
4 70 -3 81 -6 108 -32z m749 2 l-3 -33 -70 0 -70 -1 0 -29 c0 -29 2 -30 50
-35 45 -5 50 -7 50 -30 0 -23 -4 -25 -47 -28 -43 -3 -48 -5 -48 -28 0 -23 2
-24 71 -24 l70 0 -3 -37 c-2 -21 -6 -37 -10 -35 -5 1 -51 2 -103 2 l-95 0 0
155 0 155 106 0 105 0 -3 -32z m223 -40 c34 -40 69 -79 76 -87 10 -12 11 1 6
72 -6 93 -6 94 45 81 22 -6 22 -9 22 -156 0 -148 0 -149 -22 -146 -13 2 -48
34 -85 78 -35 41 -67 76 -73 78 -6 2 -10 -27 -10 -77 l0 -81 -35 0 -35 0 0
155 0 155 24 0 c17 0 41 -20 87 -72z m1621 54 c3 -4 2 -27 -3 -52 -21 -93 -27
-146 -21 -192 l5 -48 -42 0 -41 0 0 58 c0 31 3 101 7 156 l6 98 41 -6 c23 -4
44 -10 48 -14z m208 -109 c0 -71 -3 -138 -6 -150 -7 -24 -39 -33 -94 -26 -32
5 -37 8 -32 27 6 24 28 48 39 44 4 -2 9 44 11 102 1 58 4 111 7 118 2 6 20 12
40 12 l35 0 0 -127z m306 108 c29 -18 64 -74 64 -103 0 -8 -18 -31 -40 -53
l-39 -39 34 -41 c19 -24 31 -45 28 -49 -4 -3 -21 -6 -39 -6 -28 0 -36 6 -56
43 -18 32 -30 43 -51 45 -28 3 -29 3 -26 -45 2 -26 0 -47 -4 -45 -4 1 -18 2
-32 2 l-25 0 0 155 0 155 78 0 c58 0 85 -5 108 -19z m390 -7 c10 -38 -6 -46
-80 -42 l-66 3 0 -33 0 -34 53 4 c52 3 52 3 52 -27 0 -30 -1 -30 -58 -33 -54
-3 -58 -5 -55 -25 3 -20 9 -22 76 -25 l73 -3 -3 -37 c-2 -22 -8 -37 -15 -36
-7 1 -53 2 -103 3 l-90 1 0 155 0 155 105 0 c104 0 105 0 111 -26z m-4521 -59
c28 -4 68 -9 90 -12 22 -3 138 -7 258 -7 204 -1 220 -2 233 -20 39 -54 10 -59
-297 -52 -264 6 -413 19 -435 37 -10 8 -11 27 -5 61 1 7 45 5 156 -7z m5508
-34 c10 -1 9 -49 -2 -56 -5 -3 -105 -8 -221 -11 l-211 -6 3 33 3 34 195 5
c107 3 202 4 210 3 8 -1 18 -2 23 -2z"/>
<path d="M5347 8420 c-3 -14 -11 -68 -16 -120 -6 -52 -20 -162 -31 -245 -11
-82 -23 -179 -27 -214 l-6 -64 49 7 c27 4 66 9 88 12 l39 6 -7 87 c-4 47 -13
127 -21 176 -8 50 -21 145 -30 213 -9 67 -20 132 -24 145 l-9 22 -5 -25z"/>
<path d="M5287 7629 c7 -7 15 -10 18 -7 3 3 -2 9 -12 12 -14 6 -15 5 -6 -5z"/>
<path d="M6640 8106 c0 -2 7 -6 15 -10 8 -3 15 -1 15 4 0 6 -7 10 -15 10 -8 0
-15 -2 -15 -4z"/>
<path d="M7664 8065 c-4 -8 -10 -13 -14 -10 -4 2 -15 -4 -25 -15 -10 -11 -13
-20 -7 -20 6 0 12 5 14 12 2 6 15 13 28 15 14 2 29 8 35 14 7 7 4 8 -9 3 -13
-5 -17 -4 -12 4 4 7 5 12 1 12 -3 0 -8 -7 -11 -15z"/>
<path d="M7290 7861 c0 -5 5 -13 10 -16 6 -3 10 -2 10 4 0 5 -4 13 -10 16 -5
3 -10 2 -10 -4z"/>
<path d="M6946 7824 c-4 -9 -2 -22 4 -28 7 -7 10 -6 10 3 0 7 4 10 9 6 5 -3
13 0 17 6 4 7 3 9 -4 5 -6 -3 -15 1 -20 10 -8 15 -10 15 -16 -2z"/>
<path d="M7250 7830 c0 -16 17 -20 28 -7 8 10 6 13 -9 14 -10 1 -19 -2 -19 -7z"/>
<path d="M2681 7920 l-22 -40 35 0 c19 0 37 4 40 9 6 9 -15 71 -24 71 -4 0
-16 -18 -29 -40z"/>
<path d="M8867 7210 c-4 -47 -15 -128 -23 -180 -8 -52 -18 -114 -21 -137 -3
-24 -8 -43 -12 -43 -3 0 -6 -17 -7 -37 0 -21 -3 -58 -7 -83 -6 -40 -37 -342
-37 -363 0 -5 -6 -5 -12 -1 -10 6 -10 4 0 -8 7 -9 9 -19 4 -22 -5 -3 -7 -24
-5 -47 5 -37 3 -41 -12 -35 -15 5 -16 4 -6 -8 7 -8 10 -19 7 -24 -3 -6 0 -14
7 -20 29 -24 237 50 237 85 0 10 -18 185 -40 388 -22 204 -45 426 -53 495
l-13 125 -7 -85z"/>
<path d="M9159 6192 c-13 -15 -12 -16 3 -4 13 10 17 10 21 0 4 -9 6 -9 6 -1 2
20 -16 24 -30 5z"/>
<path d="M9200 6206 c0 -2 8 -10 18 -17 15 -13 16 -12 3 4 -13 16 -21 21 -21
13z"/>
<path d="M9186 6152 c-3 -5 1 -9 9 -9 8 0 12 4 9 9 -3 4 -7 8 -9 8 -2 0 -6 -4
-9 -8z"/>
<path d="M9311 5544 c0 -11 3 -14 6 -6 3 7 2 16 -1 19 -3 4 -6 -2 -5 -13z"/>
<path d="M9321 5504 c0 -11 3 -14 6 -6 3 7 2 16 -1 19 -3 4 -6 -2 -5 -13z"/>
<path d="M8610 5296 c0 -2 8 -10 18 -17 15 -13 16 -12 3 4 -13 16 -21 21 -21
13z"/>
<path d="M1290 7511 c0 -16 -3 -36 -6 -45 -5 -13 2 -16 44 -16 66 0 82 7 82
36 0 30 -36 54 -82 54 -35 0 -38 -2 -38 -29z"/>
<path d="M1991 7526 c-7 -8 -11 -27 -9 -43 3 -28 4 -28 63 -25 33 1 64 7 68
11 5 5 6 23 2 40 -6 30 -8 31 -60 31 -33 0 -57 -5 -64 -14z"/>
<path d="M3260 7435 l0 -85 35 0 c82 0 127 42 111 105 -11 45 -41 65 -96 65
l-50 0 0 -85z"/>
<path d="M8246 6875 c-9 -26 -7 -32 5 -12 6 10 9 21 6 23 -2 3 -7 -2 -11 -11z"/>
<path d="M8012 5094 c10 -10 20 -16 22 -13 3 3 -5 11 -17 18 -21 13 -21 12 -5
-5z"/>
<path d="M1540 6840 c-9 -6 -10 -10 -3 -10 6 0 15 5 18 10 8 12 4 12 -15 0z"/>
<path d="M1710 6940 c0 -5 5 -12 10 -15 6 -3 10 -1 10 5 0 6 6 8 13 4 6 -4 8
-3 4 1 -10 12 -37 15 -37 5z"/>
<path d="M3448 3023 c7 -3 16 -2 19 1 4 3 -2 6 -13 5 -11 0 -14 -3 -6 -6z"/>
<path d="M1527 2967 c-3 -8 -2 -20 3 -26 5 -9 8 -4 8 13 0 29 -3 32 -11 13z"/>
<path d="M1520 2846 c0 -2 8 -10 18 -17 15 -13 16 -12 3 4 -13 16 -21 21 -21
13z"/>
<path d="M1493 2767 c-3 -6 -1 -7 5 -3 5 3 12 1 14 -6 3 -8 6 -7 10 3 7 17
-19 22 -29 6z"/>
<path d="M4896 5933 c-27 -180 -45 -314 -52 -395 -4 -43 -10 -76 -14 -73 -4 2
-5 -7 -2 -21 4 -21 -12 -192 -23 -254 -2 -8 -6 -45 -10 -82 -4 -37 -10 -66
-14 -64 -4 3 -6 -8 -5 -22 1 -15 -4 -33 -10 -41 -8 -11 -8 -13 0 -8 7 4 14 -1
17 -13 3 -10 0 -21 -7 -24 -7 -3 -7 -5 2 -5 15 -1 16 -41 0 -41 -6 0 -8 -3 -5
-7 4 -3 42 10 84 30 43 19 95 42 116 51 44 18 44 15 22 221 -8 77 -21 228 -30
335 -23 287 -44 512 -48 517 -3 2 -12 -45 -21 -104z"/>
<path d="M5096 4933 c-6 -14 -5 -15 5 -6 7 7 10 15 7 18 -3 3 -9 -2 -12 -12z"/>
<path d="M4670 4756 c0 -2 8 -10 18 -17 15 -13 16 -12 3 4 -13 16 -21 21 -21
13z"/>
<path d="M9114 4458 c-15 -19 -16 -20 -1 -9 9 7 17 9 17 3 0 -5 -9 -16 -21
-23 l-21 -14 24 -20 23 -20 -17 20 c-16 20 -16 21 2 33 10 6 18 21 17 32 -2
24 0 25 -23 -2z"/>
<path d="M9090 4388 c14 -16 13 -31 -2 -22 -7 5 -8 3 -3 -5 5 -9 10 -10 18 -2
8 8 6 15 -6 26 -9 8 -12 10 -7 3z"/>
<path d="M9195 4060 c3 -5 8 -10 11 -10 2 0 4 5 4 10 0 6 -5 10 -11 10 -5 0
-7 -4 -4 -10z"/>
<path d="M7304 4492 c4 -6 2 -22 -4 -34 -11 -22 -10 -22 4 -4 19 24 20 32 4
42 -7 4 -8 3 -4 -4z"/>
<path d="M8803 3951 c0 -11 5 -18 9 -15 4 3 5 11 1 19 -7 21 -12 19 -10 -4z"/>
<path d="M8827 3819 c7 -7 15 -10 18 -7 3 3 -2 9 -12 12 -14 6 -15 5 -6 -5z"/>
<path d="M8826 3788 c3 -5 10 -6 15 -3 13 9 11 12 -6 12 -8 0 -12 -4 -9 -9z"/>
<path d="M8646 2813 c-6 -14 -5 -15 5 -6 7 7 10 15 7 18 -3 3 -9 -2 -12 -12z"/>
<path d="M8627 2789 c7 -7 15 -10 18 -7 3 3 -2 9 -12 12 -14 6 -15 5 -6 -5z"/>
<path d="M9006 3288 c3 -5 10 -6 15 -3 13 9 11 12 -6 12 -8 0 -12 -4 -9 -9z"/>
<path d="M9000 3200 c0 -5 5 -10 11 -10 5 0 7 5 4 10 -3 6 -8 10 -11 10 -2 0
-4 -4 -4 -10z"/>
<path d="M8937 3059 c7 -7 15 -10 18 -7 3 3 -2 9 -12 12 -14 6 -15 5 -6 -5z"/>
<path d="M8907 3029 c7 -7 15 -10 18 -7 3 3 -2 9 -12 12 -14 6 -15 5 -6 -5z"/>
<path d="M8948 3033 c7 -3 16 -2 19 1 4 3 -2 6 -13 5 -11 0 -14 -3 -6 -6z"/>
<path d="M8900 3005 c14 -8 34 -14 45 -14 13 0 8 5 -15 14 -46 18 -61 18 -30
0z"/>
<path d="M8878 2988 c5 -5 16 -8 23 -6 8 3 3 7 -10 11 -17 4 -21 3 -13 -5z"/>
<path d="M8920 2950 c12 -8 12 -10 -5 -10 -16 0 -17 -2 -5 -9 17 -12 30 -5 30
15 0 8 -8 14 -17 14 -15 0 -16 -2 -3 -10z"/>
<path d="M8860 2940 c0 -5 7 -7 15 -4 8 4 15 8 15 10 0 2 -7 4 -15 4 -8 0 -15
-4 -15 -10z"/>
<path d="M8907 2909 c7 -7 15 -10 18 -7 3 3 -2 9 -12 12 -14 6 -15 5 -6 -5z"/>
<path d="M8850 2889 c0 -6 -7 -9 -15 -5 -12 4 -13 2 -3 -14 7 -11 19 -22 28
-25 12 -5 13 -4 3 6 -7 7 -13 16 -13 21 0 4 6 6 13 4 6 -1 9 -1 4 1 -4 3 -5 9
-1 14 3 5 0 9 -5 9 -6 0 -11 -5 -11 -11z"/>
<path d="M8833 2803 c13 -15 15 -22 6 -25 -9 -3 -7 -7 5 -11 9 -4 15 -3 11 2
-3 5 -1 11 4 13 5 1 -3 12 -17 22 l-27 20 18 -21z"/>
<path d="M8771 2767 c-8 -12 -21 -32 -29 -44 -8 -13 -12 -23 -9 -23 7 0 59 81
55 85 -2 2 -10 -6 -17 -18z"/>
<path d="M8827 2749 c7 -7 15 -10 18 -7 3 3 -2 9 -12 12 -14 6 -15 5 -6 -5z"/>
<path d="M8710 2670 c-6 -12 -9 -24 -7 -27 3 -2 11 5 17 17 6 12 9 24 7 27 -3
2 -11 -5 -17 -17z"/>
<path d="M8731 2574 c0 -11 3 -14 6 -6 3 7 2 16 -1 19 -3 4 -6 -2 -5 -13z"/>
<path d="M8675 2571 c-7 -13 35 -42 49 -34 6 4 0 10 -14 13 -14 4 -24 12 -22
18 3 14 -5 16 -13 3z"/>
<path d="M8700 2570 c0 -5 5 -10 11 -10 5 0 7 5 4 10 -3 6 -8 10 -11 10 -2 0
-4 -4 -4 -10z"/>
<path d="M8655 2540 c10 -11 20 -20 23 -20 3 0 -3 9 -13 20 -10 11 -20 20 -23
20 -3 0 3 -9 13 -20z"/>
<path d="M8636 2527 c3 -10 9 -15 12 -12 3 3 0 11 -7 18 -10 9 -11 8 -5 -6z"/>
<path d="M8610 2511 c0 -6 4 -13 10 -16 6 -3 7 1 4 9 -7 18 -14 21 -14 7z"/>
<path d="M8570 2462 c0 -4 9 -13 20 -20 11 -7 20 -9 20 -4 0 4 -9 13 -20 20
-11 7 -20 9 -20 4z"/>
<path d="M8515 2390 c3 -5 8 -10 11 -10 2 0 4 5 4 10 0 6 -5 10 -11 10 -5 0
-7 -4 -4 -10z"/>
<path d="M8470 2376 c0 -2 7 -7 16 -10 8 -3 12 -2 9 4 -6 10 -25 14 -25 6z"/>
<path d="M8420 2316 c0 -2 7 -7 16 -10 8 -3 12 -2 9 4 -6 10 -25 14 -25 6z"/>
<path d="M8430 2286 c0 -2 8 -10 18 -17 15 -13 16 -12 3 4 -13 16 -21 21 -21
13z"/>
<path d="M8350 2241 c0 -6 4 -13 10 -16 6 -3 7 1 4 9 -7 18 -14 21 -14 7z"/>
<path d="M8280 2216 c0 -2 8 -10 18 -17 15 -13 16 -12 3 4 -13 16 -21 21 -21
13z"/>
<path d="M8230 2189 c0 -5 5 -7 10 -4 6 3 10 8 10 11 0 2 -4 4 -10 4 -5 0 -10
-5 -10 -11z"/>
<path d="M8250 2176 c0 -2 8 -10 18 -17 15 -13 16 -12 3 4 -13 16 -21 21 -21
13z"/>
<path d="M8164 2152 c-9 -5 -8 -10 1 -19 11 -10 13 -9 12 7 -1 11 -1 20 -2 20
0 0 -5 -4 -11 -8z"/>
<path d="M8150 2121 c0 -6 4 -13 10 -16 6 -3 7 1 4 9 -7 18 -14 21 -14 7z"/>
<path d="M8026 2037 c3 -10 9 -15 12 -12 3 3 0 11 -7 18 -10 9 -11 8 -5 -6z"/>
<path d="M7958 2003 c7 -3 16 -2 19 1 4 3 -2 6 -13 5 -11 0 -14 -3 -6 -6z"/>
<path d="M5456 2927 c3 -10 9 -15 12 -12 3 3 0 11 -7 18 -10 9 -11 8 -5 -6z"/>
<path d="M5426 2914 c-4 -9 -4 -19 -1 -22 3 -3 5 0 5 7 0 7 4 9 10 6 6 -3 7 1
4 9 -8 20 -10 20 -18 0z"/>
<path d="M5340 2886 c0 -2 8 -10 18 -17 15 -13 16 -12 3 4 -13 16 -21 21 -21
13z"/>
<path d="M4536 2407 c3 -10 9 -15 12 -12 3 3 0 11 -7 18 -10 9 -11 8 -5 -6z"/>
<path d="M4590 2400 c0 -5 5 -10 11 -10 5 0 7 5 4 10 -3 6 -8 10 -11 10 -2 0
-4 -4 -4 -10z"/>
<path d="M4450 2376 c0 -2 7 -9 15 -16 13 -11 14 -10 9 4 -5 14 -24 23 -24 12z"/>
<path d="M4410 2367 c0 -11 30 -67 35 -67 6 0 -16 52 -27 65 -4 5 -8 6 -8 2z"/>
<path d="M4491 2334 c0 -11 3 -14 6 -6 3 7 2 16 -1 19 -3 4 -6 -2 -5 -13z"/>
<path d="M4257 2259 c4 -13 8 -18 11 -10 2 7 -1 18 -6 23 -8 8 -9 4 -5 -13z"/>
<path d="M4218 2233 c5 -21 7 -23 10 -9 2 10 0 22 -6 28 -6 6 -7 0 -4 -19z"/>
<path d="M4241 2234 c0 -11 3 -14 6 -6 3 7 2 16 -1 19 -3 4 -6 -2 -5 -13z"/>
<path d="M4100 2226 c0 -4 7 -14 15 -22 8 -9 15 -11 15 -6 0 5 -7 15 -15 22
-8 7 -15 9 -15 6z"/>
<path d="M3580 2008 c0 -5 -4 -7 -8 -4 -5 3 -4 -10 2 -29 6 -18 14 -31 18 -29
4 3 8 0 8 -7 0 -7 3 -10 6 -6 3 3 -1 16 -10 29 -18 25 -21 42 -6 33 6 -3 10 0
10 7 0 9 3 9 10 -2 5 -8 10 -19 10 -25 0 -5 -5 -3 -10 5 -5 8 -10 11 -10 5 1
-5 8 -19 16 -30 15 -19 15 -18 12 20 -3 33 -8 40 -26 41 -12 1 -22 -3 -22 -8z"/>
<path d="M3550 1985 c0 -5 5 -17 10 -25 5 -8 10 -10 10 -5 0 6 -5 17 -10 25
-5 8 -10 11 -10 5z"/>
<path d="M3290 1891 c0 -6 4 -13 10 -16 6 -3 7 1 4 9 -7 18 -14 21 -14 7z"/>
<path d="M3317 1879 c4 -13 8 -18 11 -10 2 7 -1 18 -6 23 -8 8 -9 4 -5 -13z"/>
<path d="M3212 1860 c0 -14 2 -19 5 -12 2 6 2 18 0 25 -3 6 -5 1 -5 -13z"/>
<path d="M4890 3050 c-8 -5 -12 -12 -9 -15 4 -3 12 1 19 10 14 17 11 19 -10 5z"/>
<path d="M7520 2996 c0 -2 8 -10 18 -17 15 -13 16 -12 3 4 -13 16 -21 21 -21
13z"/>
<path d="M7291 2874 c0 -11 3 -14 6 -6 3 7 2 16 -1 19 -3 4 -6 -2 -5 -13z"/>
<path d="M6149 2013 c-13 -16 -12 -17 4 -4 16 13 21 21 13 21 -2 0 -10 -8 -17
-17z"/>
<path d="M4050 2181 c5 -11 10 -26 10 -33 -1 -7 -8 -1 -16 15 -19 36 -26 34
-13 -3 11 -30 23 -38 34 -20 8 13 -5 60 -16 60 -6 0 -5 -8 1 -19z"/>
<path d="M3860 2105 c1 -6 7 -21 16 -35 l15 -25 -7 25 c-7 26 -24 52 -24 35z"/>
<path d="M4619 1531 c-16 -16 -29 -40 -29 -53 1 -39 53 -88 94 -88 8 0 28 12
45 26 41 34 42 79 3 117 -37 36 -75 35 -113 -2z"/>
<path d="M5527 1485 l-16 -45 35 0 c24 0 34 5 34 15 0 16 -27 75 -34 75 -2 0
-11 -20 -19 -45z"/>
<path d="M3167 1554 c-4 -4 -7 -16 -7 -26 0 -16 6 -19 43 -16 34 2 42 7 42 23
0 16 -8 21 -35 23 -20 2 -39 0 -43 -4z"/>
<path d="M3172 1413 c3 -24 8 -28 39 -31 39 -3 63 15 53 42 -4 11 -19 16 -51
16 -42 0 -44 -1 -41 -27z"/>
<path d="M6272 1528 c3 -32 5 -33 47 -33 30 0 47 5 54 17 18 27 -9 48 -60 48
-44 0 -44 0 -41 -32z"/>
</g>
</svg>
